<mxfile modified="2020-12-15T11:52:12.646Z" host="app.diagrams.net" agent="5.0 (Macintosh; Intel Mac OS X 11_0_1) AppleWebKit/537.36 (KHTML, like Gecko) Chrome/87.0.4280.88 Safari/537.36" etag="Q1fqPE9z1ca9_mFdiQMM" version="14.0.1" type="github">
  <diagram id="WI9T0HZ2pTsCkuznbFz-" name="Page-1">
    <mxGraphModel dx="2365" dy="1283" grid="1" gridSize="10" guides="1" tooltips="1" connect="1" arrows="1" fold="1" page="1" pageScale="1" pageWidth="1169" pageHeight="827" math="0" shadow="0">
      <root>
        <mxCell id="0" />
        <mxCell id="1" parent="0" />
        <mxCell id="Fx9dtCml6bJ_47yGWjt6-29" style="edgeStyle=orthogonalEdgeStyle;rounded=0;orthogonalLoop=1;jettySize=auto;html=1;entryX=0;entryY=0.5;entryDx=0;entryDy=0;" parent="1" source="Fx9dtCml6bJ_47yGWjt6-28" target="Fx9dtCml6bJ_47yGWjt6-9" edge="1">
          <mxGeometry relative="1" as="geometry" />
        </mxCell>
        <mxCell id="Fx9dtCml6bJ_47yGWjt6-28" value="" style="whiteSpace=wrap;html=1;" parent="1" vertex="1">
          <mxGeometry x="740" y="374.4" width="130" height="240" as="geometry" />
        </mxCell>
        <mxCell id="Fx9dtCml6bJ_47yGWjt6-21" value="" style="whiteSpace=wrap;html=1;" parent="1" vertex="1">
          <mxGeometry x="917.7" y="50" width="140" height="240" as="geometry" />
        </mxCell>
        <mxCell id="Fx9dtCml6bJ_47yGWjt6-31" style="edgeStyle=orthogonalEdgeStyle;rounded=0;orthogonalLoop=1;jettySize=auto;html=1;exitX=1;exitY=0.5;exitDx=0;exitDy=0;entryX=0;entryY=0.5;entryDx=0;entryDy=0;" parent="1" source="Fx9dtCml6bJ_47yGWjt6-2" target="Fx9dtCml6bJ_47yGWjt6-5" edge="1">
          <mxGeometry relative="1" as="geometry" />
        </mxCell>
        <mxCell id="Fx9dtCml6bJ_47yGWjt6-2" value="" style="shape=image;verticalLabelPosition=bottom;labelBackgroundColor=#ffffff;verticalAlign=top;aspect=fixed;imageAspect=0;image=data:image/svg+xml,PHN2ZyB4bWxuczpkYz0iaHR0cDovL3B1cmwub3JnL2RjL2VsZW1lbnRzLzEuMS8iIHhtbG5zOmNjPSJodHRwOi8vY3JlYXRpdmVjb21tb25zLm9yZy9ucyMiIHhtbG5zOnJkZj0iaHR0cDovL3d3dy53My5vcmcvMTk5OS8wMi8yMi1yZGYtc3ludGF4LW5zIyIgeG1sbnM6c3ZnPSJodHRwOi8vd3d3LnczLm9yZy8yMDAwL3N2ZyIgeG1sbnM9Imh0dHA6Ly93d3cudzMub3JnLzIwMDAvc3ZnIiB4bWxuczp4bGluaz0iaHR0cDovL3d3dy53My5vcmcvMTk5OS94bGluayIgeG1sbnM6c29kaXBvZGk9Imh0dHA6Ly9zb2RpcG9kaS5zb3VyY2Vmb3JnZS5uZXQvRFREL3NvZGlwb2RpLTAuZHRkIiB4bWxuczppbmtzY2FwZT0iaHR0cDovL3d3dy5pbmtzY2FwZS5vcmcvbmFtZXNwYWNlcy9pbmtzY2FwZSIgdmVyc2lvbj0iMS4xIiBpZD0iTGF5ZXJfMSIgeD0iMHB4IiB5PSIwcHgiIHZpZXdCb3g9IjAgMCAzNS45NTAwMDEgMjkuMjE5OTk5IiB4bWw6c3BhY2U9InByZXNlcnZlIiBzb2RpcG9kaTpkb2NuYW1lPSJzYXBfaWRlbnRpdHlfcHJvdmlzaW9uaW5nLnN2ZyIgd2lkdGg9IjM1Ljk1MDAwMSIgaGVpZ2h0PSIyOS4yMTk5OTkiIGlua3NjYXBlOnZlcnNpb249IjAuOTIuMyAoMjQwNTU0NiwgMjAxOC0wMy0xMSkiPjxtZXRhZGF0YSBpZD0ibWV0YWRhdGE1NDI3NCI+PHJkZjpSREY+PGNjOldvcmsgcmRmOmFib3V0PSIiPjxkYzpmb3JtYXQ+aW1hZ2Uvc3ZnK3htbDwvZGM6Zm9ybWF0PjxkYzp0eXBlIHJkZjpyZXNvdXJjZT0iaHR0cDovL3B1cmwub3JnL2RjL2RjbWl0eXBlL1N0aWxsSW1hZ2UiLz48ZGM6dGl0bGUvPjwvY2M6V29yaz48L3JkZjpSREY+PC9tZXRhZGF0YT48ZGVmcyBpZD0iZGVmczU0MjcyIi8+PHNvZGlwb2RpOm5hbWVkdmlldyBwYWdlY29sb3I9IiNmZmZmZmYiIGJvcmRlcmNvbG9yPSIjNjY2NjY2IiBib3JkZXJvcGFjaXR5PSIxIiBvYmplY3R0b2xlcmFuY2U9IjEwIiBncmlkdG9sZXJhbmNlPSIxMCIgZ3VpZGV0b2xlcmFuY2U9IjEwIiBpbmtzY2FwZTpwYWdlb3BhY2l0eT0iMCIgaW5rc2NhcGU6cGFnZXNoYWRvdz0iMiIgaW5rc2NhcGU6d2luZG93LXdpZHRoPSIxOTIwIiBpbmtzY2FwZTp3aW5kb3ctaGVpZ2h0PSIxMDE3IiBpZD0ibmFtZWR2aWV3NTQyNzAiIHNob3dncmlkPSJmYWxzZSIgZml0LW1hcmdpbi10b3A9IjAiIGZpdC1tYXJnaW4tbGVmdD0iMCIgZml0LW1hcmdpbi1yaWdodD0iMCIgZml0LW1hcmdpbi1ib3R0b209IjAiIGlua3NjYXBlOnpvb209IjEuMDMwMzAzIiBpbmtzY2FwZTpjeD0iMS43MjUiIGlua3NjYXBlOmN5PSItMTk1Ljk0IiBpbmtzY2FwZTp3aW5kb3cteD0iLTgiIGlua3NjYXBlOndpbmRvdy15PSItOCIgaW5rc2NhcGU6d2luZG93LW1heGltaXplZD0iMSIgaW5rc2NhcGU6Y3VycmVudC1sYXllcj0iTGF5ZXJfMSIvPiYjeGE7JiN4YTs8ZyBpZD0iZzU0MjY3IiB0cmFuc2Zvcm09InRyYW5zbGF0ZSgtMjk1LjY1LC0xOTUuNTkpIj4mI3hhOwk8ZGVmcyBpZD0iZGVmczU0MjQyIj4mI3hhOwkJPHJlY3QgaWQ9IlNWR0lEXzNfIiB4PSIyOTUuNjQ5OTkiIHk9IjE5NS41OSIgd2lkdGg9IjM2LjgyIiBoZWlnaHQ9IjMxLjE1Ii8+JiN4YTsJPC9kZWZzPiYjeGE7CTxjbGlwUGF0aCBpZD0iU1ZHSURfNF8iPiYjeGE7CQk8dXNlIHhsaW5rOmhyZWY9IiNTVkdJRF8zXyIgc3R5bGU9Im92ZXJmbG93OnZpc2libGUiIGlkPSJ1c2U1NDI0NCIgeD0iMCIgeT0iMCIgd2lkdGg9IjEwMCUiIGhlaWdodD0iMTAwJSIvPiYjeGE7CTwvY2xpcFBhdGg+JiN4YTsJPGcgY2xpcC1wYXRoPSJ1cmwoI1NWR0lEXzRfKSIgaWQ9Imc1NDI2NSI+JiN4YTsJCTxkZWZzIGlkPSJkZWZzNTQyNDgiPiYjeGE7CQkJPHJlY3QgaWQ9IlNWR0lEXzVfIiB4PSIyOTUuNjQ5OTkiIHk9IjE5NS41OSIgd2lkdGg9IjM2LjgyIiBoZWlnaHQ9IjMxLjE1Ii8+JiN4YTsJCTwvZGVmcz4mI3hhOwkJPGNsaXBQYXRoIGlkPSJTVkdJRF82XyI+JiN4YTsJCQk8dXNlIHhsaW5rOmhyZWY9IiNTVkdJRF81XyIgc3R5bGU9Im92ZXJmbG93OnZpc2libGUiIGlkPSJ1c2U1NDI1MCIgeD0iMCIgeT0iMCIgd2lkdGg9IjEwMCUiIGhlaWdodD0iMTAwJSIvPiYjeGE7CQk8L2NsaXBQYXRoPiYjeGE7CQk8cGF0aCBzdHlsZT0iZmlsbDojNWE3YTk0IiBkPSJtIDMyNi45OCwyMDUuMjkgYyAtMC43OCwtNC4zNyAtNS43NSwtNi41OSAtOS41OCwtNC4yNSAtMS4zMiwtMy4yOSAtNC40MywtNS40NSAtNy45NywtNS40NSAtOS40NiwwLjQ4IC04LjQ1LDkuNyAtOC40NSw5LjcgLTMuMTcsMS4wMiAtNS4zMyw0LjAxIC01LjMzLDcuMzEgMCw0LjI1IDIuNyw3LjcyIDYuOTUsNy43MiBoIDAuNTQgdiAtMi4yOCBoIC0wLjU0IGMgLTMsMCAtNC42NywtMi40NSAtNC42NywtNS40NSAwLC0yLjM0IDEuNSwtNC40MyAzLjcxLC01LjE1IGwgMS43NCwtMC42IC0wLjE4LC0xLjc0IGMgMCwtMC4wNiAtMC4zLC0zLjE3IDEuNSwtNS4yNyAxLjAyLC0xLjIgMi42NCwtMS44NiA0Ljc5LC0xLjk4IDIuNTgsMC4wNiA0LjkxLDEuNjIgNS45OSwzLjk1IGwgMC44NCwyLjE2IDEuODYsLTAuOTYgYyAwLjc4LC0wLjQyIDEuNjIsLTAuNjYgMi41MiwtMC42NiAxLjk4LDAgMy43MSwxLjM4IDQuMDcsMy4zNSBsIDAuMjQsMS4xNCAxLjAyLDAuNDggYyAyLjA0LDAuOSAzLjI5LDIuOTMgMy4zNSw1LjA5IDAsMy4xMSAtMS44LDUuNjMgLTQuOTEsNS42MyBoIC0wLjM2IHYgMi4yOCBoIDAuMzYgYyA0LjM3LDAgNy4xMywtMy41MyA3LjEzLC03LjkgLTAuMDEsLTMuMDUgLTEuODEsLTUuODYgLTQuNjIsLTcuMTIgeiIgY2xpcC1wYXRoPSJ1cmwoI1NWR0lEXzZfKSIgaWQ9InBhdGg1NDI1MyIgaW5rc2NhcGU6Y29ubmVjdG9yLWN1cnZhdHVyZT0iMCIvPiYjeGE7CQk8cGF0aCBzdHlsZT0iZmlsbDojMDA5MmQxIiBkPSJtIDMxMi4yNCwyMjAuMDIgYyAtMC4yNCwtMC4zIC0wLjYsLTAuNDggLTAuOSwtMC42NiAtMC4zNiwtMC4xMiAtMC43MiwtMC4xOCAtMS4wOCwtMC4xOCBoIC0yLjgyIGMgLTAuMzYsMCAtMC43OCwwLjA2IC0xLjA4LDAuMTggLTAuMzYsMC4xOCAtMC42NiwwLjM2IC0wLjksMC42NiAtMC4zLDAuMjQgLTAuNDgsMC41NCAtMC42LDAuODQgLTAuMTgsMC4zNiAtMC4yNCwwLjcyIC0wLjI0LDEuMTQgdiAyLjgxIGggOC40NSBWIDIyMiBjIDAsLTAuNDIgLTAuMTIsLTAuNzggLTAuMjQsLTEuMTQgLTAuMTEsLTAuMyAtMC4zNSwtMC42IC0wLjU5LC0wLjg0IHoiIGNsaXAtcGF0aD0idXJsKCNTVkdJRF82XykiIGlkPSJwYXRoNTQyNTUiIGlua3NjYXBlOmNvbm5lY3Rvci1jdXJ2YXR1cmU9IjAiLz4mI3hhOwkJPHBhdGggc3R5bGU9ImZpbGw6IzAwOTJkMSIgZD0ibSAzMTAuOCwyMTguMzQgYyAwLjMsLTAuMjQgMC40OCwtMC41NCAwLjY2LC0wLjkgMC4yNCwtMC42NiAwLjI0LC0xLjUgMCwtMi4xNiAtMC4zLC0wLjcyIC0wLjg0LC0xLjI2IC0xLjU2LC0xLjUgLTAuNjYsLTAuMyAtMS40NCwtMC4zIC0yLjE2LDAgLTAuMzYsMC4xMiAtMC42NiwwLjMgLTAuOSwwLjYgLTAuMjQsMC4yNCAtMC40OCwwLjU0IC0wLjYsMC45IC0wLjMsMC42NiAtMC4zLDEuNDQgMCwyLjE2IDAuMywwLjY2IDAuODQsMS4yIDEuNSwxLjUgMC43MiwwLjMgMS41LDAuMyAyLjE2LDAgMC4zNywtMC4xMiAwLjY3LC0wLjM2IDAuOSwtMC42IHoiIGNsaXAtcGF0aD0idXJsKCNTVkdJRF82XykiIGlkPSJwYXRoNTQyNTciIGlua3NjYXBlOmNvbm5lY3Rvci1jdXJ2YXR1cmU9IjAiLz4mI3hhOwkJPHBhdGggc3R5bGU9ImZpbGw6IzAwOTJkMSIgZD0ibSAzMjEuNzcsMjIwLjAyIGMgLTAuMjQsLTAuMyAtMC41NCwtMC40OCAtMC45LC0wLjY2IC0wLjMsLTAuMTIgLTAuNzIsLTAuMTggLTEuMDgsLTAuMTggaCAtMi44MiBjIC0wLjM2LDAgLTAuNzIsMC4wNiAtMS4wOCwwLjE4IC0wLjM2LDAuMTggLTAuNjYsMC4zNiAtMC45LDAuNiAtMC4yNCwwLjMgLTAuNDgsMC42IC0wLjYsMC45IC0wLjEyLDAuMzYgLTAuMjQsMC43MiAtMC4yNCwxLjE0IHYgMi44MSBoIDguNDUgViAyMjIgYyAwLC0wLjQyIC0wLjA2LC0wLjc4IC0wLjI0LC0xLjE0IC0wLjExLC0wLjMgLTAuMjksLTAuNiAtMC41OSwtMC44NCB6IiBjbGlwLXBhdGg9InVybCgjU1ZHSURfNl8pIiBpZD0icGF0aDU0MjU5IiBpbmtzY2FwZTpjb25uZWN0b3ItY3VydmF0dXJlPSIwIi8+JiN4YTsJCTxwYXRoIHN0eWxlPSJmaWxsOiMwMDkyZDEiIGQ9Im0gMzIwLjM5LDIxOC4zNCBjIDAuMjQsLTAuMjQgMC40OCwtMC41NCAwLjYsLTAuOSAwLjMsLTAuNjYgMC4zLC0xLjUgMCwtMi4xNiAtMC4zLC0wLjcyIC0wLjg0LC0xLjI2IC0xLjUsLTEuNSAtMC43MiwtMC4zIC0xLjUsLTAuMyAtMi4yMiwwIC0wLjMsMC4xMiAtMC42LDAuMyAtMC44NCwwLjYgLTAuMywwLjI0IC0wLjQ4LDAuNTQgLTAuNjYsMC45IC0wLjI0LDAuNjYgLTAuMjQsMS40NCAwLDIuMTYgMC4zLDAuNjYgMC44NCwxLjIgMS41LDEuNSAwLjcyLDAuMyAxLjUsMC4zIDIuMjIsMCAwLjMsLTAuMTIgMC42NiwtMC4zNiAwLjksLTAuNiB6IiBjbGlwLXBhdGg9InVybCgjU1ZHSURfNl8pIiBpZD0icGF0aDU0MjYxIiBpbmtzY2FwZTpjb25uZWN0b3ItY3VydmF0dXJlPSIwIi8+JiN4YTsJCTxwYXRoIHN0eWxlPSJmaWxsOiMwMDkyZDEiIGQ9Im0gMzA4LjI5LDIxMS4zNCB2IC03LjAxIGwgLTEuNSwxLjggYyAtMC4zLDAuMyAtMC43MiwwLjMgLTAuOTYsMCAtMC4zLC0wLjI0IC0wLjMsLTAuNjYgMCwtMC45IGwgMi4xNiwtMi41MiBjIDAuNTQsLTAuNTQgMS4zOCwtMC41NCAxLjk4LDAgbCAyLjE2LDIuNTIgYyAwLjMsMC4yNCAwLjMsMC42NiAwLDAuOSAtMC4yNCwwLjMgLTAuNzIsMC4zIC0wLjk2LDAgbCAtMS41LC0xLjggdiA3LjAxIHoiIGNsaXAtcGF0aD0idXJsKCNTVkdJRF82XykiIGlkPSJwYXRoNTQyNjMiIGlua3NjYXBlOmNvbm5lY3Rvci1jdXJ2YXR1cmU9IjAiLz4mI3hhOwk8L2c+JiN4YTs8L2c+JiN4YTs8L3N2Zz4=;" parent="1" vertex="1">
          <mxGeometry x="50" y="232.6" width="124.14" height="100" as="geometry" />
        </mxCell>
        <mxCell id="Fx9dtCml6bJ_47yGWjt6-32" style="edgeStyle=orthogonalEdgeStyle;rounded=0;orthogonalLoop=1;jettySize=auto;html=1;exitX=1;exitY=0.5;exitDx=0;exitDy=0;" parent="1" source="Fx9dtCml6bJ_47yGWjt6-5" target="Fx9dtCml6bJ_47yGWjt6-11" edge="1">
          <mxGeometry relative="1" as="geometry" />
        </mxCell>
        <mxCell id="Fx9dtCml6bJ_47yGWjt6-5" value="https://xadmin.airdb.io" style="shape=image;verticalLabelPosition=bottom;labelBackgroundColor=#ffffff;verticalAlign=top;aspect=fixed;imageAspect=0;image=data:image/svg+xml,PHN2ZyB4bWxuczpjYz0iaHR0cDovL2NyZWF0aXZlY29tbW9ucy5vcmcvbnMjIiB4bWxuczpkYz0iaHR0cDovL3B1cmwub3JnL2RjL2VsZW1lbnRzLzEuMS8iIHhtbG5zOmlua3NjYXBlPSJodHRwOi8vd3d3Lmlua3NjYXBlLm9yZy9uYW1lc3BhY2VzL2lua3NjYXBlIiB4bWxuczpyZGY9Imh0dHA6Ly93d3cudzMub3JnLzE5OTkvMDIvMjItcmRmLXN5bnRheC1ucyMiIHhtbG5zOnNvZGlwb2RpPSJodHRwOi8vc29kaXBvZGkuc291cmNlZm9yZ2UubmV0L0RURC9zb2RpcG9kaS0wLmR0ZCIgeG1sbnM6c3ZnPSJodHRwOi8vd3d3LnczLm9yZy8yMDAwL3N2ZyIgeG1sbnM9Imh0dHA6Ly93d3cudzMub3JnLzIwMDAvc3ZnIiB4bWxuczp4bGluaz0iaHR0cDovL3d3dy53My5vcmcvMTk5OS94bGluayIgdmVyc2lvbj0iMS4xIiBpZD0ic3ZnODE2IiBpbmtzY2FwZTp2ZXJzaW9uPSIwLjkyLjMgKDI0MDU1NDYsIDIwMTgtMDMtMTEpIiBzb2RpcG9kaTpkb2NuYW1lPSJjbG91ZF9ibHVlLnN2ZyIgeD0iMHB4IiB5PSIwcHgiIHZpZXdCb3g9IjAgMCAxMjMuNzUgNjMuOTMiIHN0eWxlPSJlbmFibGUtYmFja2dyb3VuZDpuZXcgMCAwIDEyMy43NSA2My45MzsiIHhtbDpzcGFjZT0icHJlc2VydmUiPiYjeGE7PHNvZGlwb2RpOm5hbWVkdmlldyBib3JkZXJjb2xvcj0iIzY2NjY2NiIgYm9yZGVyb3BhY2l0eT0iMSIgZml0LW1hcmdpbi1ib3R0b209IjAiIGZpdC1tYXJnaW4tbGVmdD0iMCIgZml0LW1hcmdpbi1yaWdodD0iMCIgZml0LW1hcmdpbi10b3A9IjAiIGdyaWR0b2xlcmFuY2U9IjEwIiBndWlkZXRvbGVyYW5jZT0iMTAiIGlkPSJuYW1lZHZpZXc4MTgiIGlua3NjYXBlOmN1cnJlbnQtbGF5ZXI9InN2ZzgxNiIgaW5rc2NhcGU6Y3g9Ijk2Ljc1ODk4NyIgaW5rc2NhcGU6Y3k9IjE4LjUwOTUiIGlua3NjYXBlOnBhZ2VvcGFjaXR5PSIwIiBpbmtzY2FwZTpwYWdlc2hhZG93PSIyIiBpbmtzY2FwZTp3aW5kb3ctaGVpZ2h0PSIxMDE3IiBpbmtzY2FwZTp3aW5kb3ctbWF4aW1pemVkPSIxIiBpbmtzY2FwZTp3aW5kb3ctd2lkdGg9IjE5MjAiIGlua3NjYXBlOndpbmRvdy14PSItOCIgaW5rc2NhcGU6d2luZG93LXk9Ii04IiBpbmtzY2FwZTp6b29tPSI0Ljk3MDY4MSIgb2JqZWN0dG9sZXJhbmNlPSIxMCIgcGFnZWNvbG9yPSIjZmZmZmZmIiBzaG93Z3JpZD0iZmFsc2UiPiYjeGE7CTwvc29kaXBvZGk6bmFtZWR2aWV3PiYjeGE7PGcgaWQ9Imc4MTQiIHRyYW5zZm9ybT0idHJhbnNsYXRlKC0wLjc0Nzg0NDI2LC0wLjczMzIyMTU3KSI+JiN4YTsJPHRpdGxlIGlkPSJ0aXRsZTgwNyI+UGFnZS0xPC90aXRsZT4mI3hhOwk8ZyBpZD0ic2hhcGUzNDQzLTEiIHRyYW5zZm9ybT0idHJhbnNsYXRlKDAuODY2NTk0LC0wLjc1KSI+JiN4YTsJCTx0aXRsZSBpZD0idGl0bGU4MDkiPkNsb3VkIChCbHVlKTwvdGl0bGU+JiN4YTsJCTxwYXRoIGlkPSJwYXRoODExIiBpbmtzY2FwZTpjb25uZWN0b3ItY3VydmF0dXJlPSIwIiBzdHlsZT0iZmlsbDojODBERUY5OyIgZD0iTTEwMy42MSwyNC44NUMxMDEuNDUsOS45NCw4Ny42Mi0wLjM5LDcyLjcyLDEuNzYgICAgQzYxLjA4LDMuNDUsNTEuODIsMTIuNDEsNDkuNzcsMjMuOTljLTcuODgtNi41Ni0xOS41OC01LjUtMjYuMTQsMi4zOGMtMS43MiwyLjA2LTIuOTcsNC40Ny0zLjY3LDcuMDYgICAgYy04LjctMi4xMy0xNy40OCwzLjItMTkuNjEsMTEuOXMzLjIsMTcuNDgsMTEuOSwxOS42MWMxLjI2LDAuMzEsMi41NiwwLjQ3LDMuODYsMC40Nmg5MS4yOWM5LjI2LTEuODgsMTYuMjMtMTAuNSwxNi4yMy0yMC4yNSAgICBDMTIzLjY2LDM0LjA0LDExNC43MywyNC45OCwxMDMuNjEsMjQuODV6Ii8+JiN4YTsJPC9nPiYjeGE7PC9nPiYjeGE7PC9zdmc+;" parent="1" vertex="1">
          <mxGeometry x="260" y="241.31" width="160" height="82.58" as="geometry" />
        </mxCell>
        <mxCell id="Fx9dtCml6bJ_47yGWjt6-24" style="edgeStyle=orthogonalEdgeStyle;rounded=0;orthogonalLoop=1;jettySize=auto;html=1;exitX=1;exitY=0.5;exitDx=0;exitDy=0;entryX=0;entryY=0.5;entryDx=0;entryDy=0;" parent="1" source="Fx9dtCml6bJ_47yGWjt6-7" target="Fx9dtCml6bJ_47yGWjt6-12" edge="1">
          <mxGeometry relative="1" as="geometry" />
        </mxCell>
        <mxCell id="Fx9dtCml6bJ_47yGWjt6-25" style="edgeStyle=orthogonalEdgeStyle;rounded=0;orthogonalLoop=1;jettySize=auto;html=1;entryX=0;entryY=0.5;entryDx=0;entryDy=0;" parent="1" source="Fx9dtCml6bJ_47yGWjt6-7" target="Fx9dtCml6bJ_47yGWjt6-28" edge="1">
          <mxGeometry relative="1" as="geometry">
            <mxPoint x="760" y="440.25" as="targetPoint" />
          </mxGeometry>
        </mxCell>
        <mxCell id="Fx9dtCml6bJ_47yGWjt6-7" value="" style="shape=image;verticalLabelPosition=bottom;labelBackgroundColor=#ffffff;verticalAlign=top;aspect=fixed;imageAspect=0;image=data:image/svg+xml,PHN2ZyB4bWxuczpjYz0iaHR0cDovL2NyZWF0aXZlY29tbW9ucy5vcmcvbnMjIiB4bWxuczpkYz0iaHR0cDovL3B1cmwub3JnL2RjL2VsZW1lbnRzLzEuMS8iIHhtbG5zOmlua3NjYXBlPSJodHRwOi8vd3d3Lmlua3NjYXBlLm9yZy9uYW1lc3BhY2VzL2lua3NjYXBlIiB4bWxuczpyZGY9Imh0dHA6Ly93d3cudzMub3JnLzE5OTkvMDIvMjItcmRmLXN5bnRheC1ucyMiIHhtbG5zOnNvZGlwb2RpPSJodHRwOi8vc29kaXBvZGkuc291cmNlZm9yZ2UubmV0L0RURC9zb2RpcG9kaS0wLmR0ZCIgeG1sbnM6c3ZnPSJodHRwOi8vd3d3LnczLm9yZy8yMDAwL3N2ZyIgeG1sbnM9Imh0dHA6Ly93d3cudzMub3JnLzIwMDAvc3ZnIiB4bWxuczp4bGluaz0iaHR0cDovL3d3dy53My5vcmcvMTk5OS94bGluayIgdmVyc2lvbj0iMS4xIiBpZD0ic3ZnNzU5MTEiIGlua3NjYXBlOnZlcnNpb249IjAuOTIuMyAoMjQwNTU0NiwgMjAxOC0wMy0xMSkiIHNvZGlwb2RpOmRvY25hbWU9ImNyb3NzX2NoZWNrLnN2ZyIgeD0iMHB4IiB5PSIwcHgiIHZpZXdCb3g9IjAgMCA0Ni41MSA0Ni42NiIgc3R5bGU9ImVuYWJsZS1iYWNrZ3JvdW5kOm5ldyAwIDAgNDYuNTEgNDYuNjY7IiB4bWw6c3BhY2U9InByZXNlcnZlIj4mI3hhOzxzb2RpcG9kaTpuYW1lZHZpZXcgYm9yZGVyY29sb3I9IiM2NjY2NjYiIGJvcmRlcm9wYWNpdHk9IjEiIGZpdC1tYXJnaW4tYm90dG9tPSIwIiBmaXQtbWFyZ2luLWxlZnQ9IjAiIGZpdC1tYXJnaW4tcmlnaHQ9IjAiIGZpdC1tYXJnaW4tdG9wPSIwIiBncmlkdG9sZXJhbmNlPSIxMCIgZ3VpZGV0b2xlcmFuY2U9IjEwIiBpZD0ibmFtZWR2aWV3NzU5MTMiIGlua3NjYXBlOmN1cnJlbnQtbGF5ZXI9InN2Zzc1OTExIiBpbmtzY2FwZTpjeD0iMzEuMDA1MDA4IiBpbmtzY2FwZTpjeT0iMzEuMDk4MzM2IiBpbmtzY2FwZTpwYWdlb3BhY2l0eT0iMCIgaW5rc2NhcGU6cGFnZXNoYWRvdz0iMiIgaW5rc2NhcGU6d2luZG93LWhlaWdodD0iMTAxNyIgaW5rc2NhcGU6d2luZG93LW1heGltaXplZD0iMSIgaW5rc2NhcGU6d2luZG93LXdpZHRoPSIxOTIwIiBpbmtzY2FwZTp3aW5kb3cteD0iLTgiIGlua3NjYXBlOndpbmRvdy15PSItOCIgaW5rc2NhcGU6em9vbT0iMTMuNTA2Nzc0IiBvYmplY3R0b2xlcmFuY2U9IjEwIiBwYWdlY29sb3I9IiNmZmZmZmYiIHNob3dncmlkPSJmYWxzZSI+JiN4YTsJPC9zb2RpcG9kaTpuYW1lZHZpZXc+JiN4YTs8ZyBpZD0iZzc1OTA5IiB0cmFuc2Zvcm09InRyYW5zbGF0ZSgtMC43NDk5OTk4MSwtMC43MzkyOTYpIj4mI3hhOwk8dGl0bGUgaWQ9InRpdGxlNzU4ODciPlBhZ2UtMTwvdGl0bGU+JiN4YTsJPGcgaWQ9Imdyb3VwNTIxOS0xIiB0cmFuc2Zvcm09InRyYW5zbGF0ZSgxLjUsLTEuNDkyNTQpIj4mI3hhOwkJPHRpdGxlIGlkPSJ0aXRsZTc1ODg5Ij5Dcm9zcy1jaGVjazwvdGl0bGU+JiN4YTsJCTxnIGlkPSJzaGFwZTUyMjAtMiI+JiN4YTsJCQk8dGl0bGUgaWQ9InRpdGxlNzU4OTEiPnBhdGg2NTA4PC90aXRsZT4mI3hhOwkJCSYjeGE7CQkJCTxwYXRoIGlkPSJwYXRoNzU4OTMiIGlua3NjYXBlOmNvbm5lY3Rvci1jdXJ2YXR1cmU9IjAiIHN0eWxlPSJmaWxsOiNGRkZGRkY7c3Ryb2tlOiM1NTZBOEE7c3Ryb2tlLXdpZHRoOjEuNTtzdHJva2UtbWl0ZXJsaW1pdDozOyIgZD0iICAgICBNMC44NCwyNy41TDQuMTksMjhjMC4wNSwwLjc2LDAuMTcsMS41MSwwLjM1LDIuMjVsLTIuNzcsMS43OGMtMC40NiwwLjE3LTAuNjksMC42Ny0wLjUyLDEuMTNjMC4wMSwwLjAyLDAuMDIsMC4wNSwwLjAzLDAuMDcgICAgIGwwLjg0LDIuMDVjMC4xNiwwLjM4LDAuNTksMC41NywwLjk4LDAuNDFjMC4wMy0wLjAxLDAuMDctMC4wMywwLjEtMC4wNWwzLjM3LTAuN2wxLjA2LDEuODNMNS42OCwzOS40ICAgICBjLTAuMzEsMC4zNC0wLjMxLDAuODYsMCwxLjJsMS42NiwxLjY5YzAuMzYsMC4yNCwwLjg0LDAuMjQsMS4yLDBsMi42NS0xLjg5YzAuNiwwLjM2LDEuMzIsMC44NCwxLjkxLDEuMmwtMC43NSwzLjM2ICAgICBjLTAuMSwwLjM5LDAuMDksMC44LDAuNDcsMC45N2wyLjA0LDAuODRjMC4zNSwwLjIyLDAuODEsMC4xMSwxLjAzLTAuMjRjMC4wMi0wLjAzLDAuMDQtMC4wNywwLjA1LTAuMWwxLjgyLTIuOTkgICAgIGMwLjY5LDAuMjgsMS40MSwwLjQ1LDIuMTUsMC41bDAuNDYsMy4zNmMtMC4wMSwwLjQ2LDAuMzUsMC44MywwLjgsMC44NWMwLjAxLDAsMC4wMiwwLDAuMDMsMGwyLjI1LTAuMTIgICAgIGMwLjM2LDAuMTIsMC43NS0wLjI0LDAuODQtMC41OWwwLjYzLTMuNDhjMC43NC0wLjA0LDEuNDctMC4yLDIuMTYtMC40NmwxLjc4LDNjMC4yNywwLjMsMC42OCwwLjQ0LDEuMDgsMC4zN2wyLjE2LTAuOTQgICAgIGMwLjM4LTAuMTUsMC41OC0wLjU2LDAuNDktMC45NWwtMC44Mi0zLjI2YzAuMTYtMC4xLDAuMzEtMC4yLDAuNDYtMC4zMmMwLjEtMC4wNiwwLjItMC4xNCwwLjMtMC4yMiAgICAgYzAuMzUtMC4yNiwwLjcxLTAuNTYsMS4wNS0wLjc1bDIuNzUsMi4wNWMwLjMyLDAuMjcsMC43OSwwLjIzLDEuMDYtMC4wOGMwLjAxLTAuMDEsMC4wMi0wLjAyLDAuMDItMC4wM2wxLTAuOTlsMC41Ni0wLjU2ICAgICBjMC4zMi0wLjI2LDAuMzctMC43MywwLjExLTEuMDZjMCwwLDAsMCwwLDBsLTIuMDItMi43N2MwLjUzLTAuNjIsMC45OC0xLjMxLDEuMzQtMi4wNGwzLjM0LDAuOThjMC40OSwwLjA4LDAuOTctMC4xOSwxLjE2LTAuNjUgICAgIGwwLjg0LTIuMDRjMC4xNC0wLjQ2LTAuMDUtMC45NS0wLjQ2LTEuMmwtMi44Ny0xLjdjMC4yNC0wLjc1LDAuMjQtMS40NCwwLjQ5LTIuMTVsMy4zNS0wLjQxYzAuNDMtMC4xMywwLjczLTAuNTEsMC43NS0wLjk2ICAgICB2LTIuMTZjMC0wLjQ0LTAuMjgtMC44My0wLjctMC45N2wtMy40OS0wLjQxYy0wLjA4LTAuODEtMC4yNC0xLjYyLTAuNDYtMi40bDMtMS43OGMwLjM5LTAuMTUsMC41OC0wLjU4LDAuNDMtMC45NyAgICAgYy0wLjAxLTAuMDQtMC4wMy0wLjA3LTAuMDUtMC4xMWwtMC44My0yLjA0Yy0wLjItMC40LTAuNjMtMC42NC0xLjA4LTAuNjFsLTMuMzcsMC45NGMtMC4zNS0wLjYtMC43MS0xLjIxLTEuMDctMS44MWwyLjA3LTIuNzQgICAgIGMwLjE1LTAuMzYsMC4xMS0wLjc3LTAuMTItMS4wOGwtMS42Ni0xLjY1Yy0wLjI5LTAuMjgtMC43My0wLjMzLTEuMDctMC4xM2wtMi43OCwyLjA0Yy0wLjYtMC4zOC0xLjMxLTAuODYtMS45MS0xLjIybDAuNzUtMy4zNiAgICAgYzAuMTEtMC4zOS0wLjA5LTAuOC0wLjQ2LTAuOTZsLTIuMTktMWMtMC40LTAuMTEtMC44MywwLjAyLTEuMDksMC4zNWwtMS43LDIuODhjLTAuNzUsMC0xLjQ0LTAuMjUtMi4xNi0wLjI2bC0wLjMtMy40OCAgICAgYy0wLjEzLTAuNDMtMC41MS0wLjczLTAuOTYtMC43NWwtMi4yNS0wLjE0Yy0wLjM5LDAuMTQtMC43LDAuNDQtMC44NCwwLjgzTDIwLjIsNy4xOWMtMC44NCwwLjExLTEuNTYsMC4zNS0yLjQsMC40NWwtMS42Ni0yLjg4ICAgICBjLTAuMjEtMC4zOS0wLjY4LTAuNTUtMS4wOC0wLjM3TDEzLDUuMjdjLTAuNDMsMC4xNy0wLjY5LDAuNjEtMC42MSwxLjA3bDAuODIsMy4yNWMtMC42NiwwLjM1LTEuMjcsMC43OS0xLjgxLDEuMzJMOC42NSw4Ljg0ICAgICBjLTAuMjktMC4zMy0wLjgtMC4zNy0xLjEzLTAuMDhDNy40OSw4Ljc5LDcuNDcsOC44MSw3LjQ0LDguODRsLTEuNDMsMS40MWwtMC4xMywwLjEyYy0wLjMzLDAuMzEtMC4zNSwwLjgyLTAuMDQsMS4xNiAgICAgYzAuMDEsMC4wMiwwLjAzLDAuMDMsMC4wNCwwLjA0bDIuMDIsMi43N2MtMC40MiwwLjQtMC43NiwwLjg3LTEuMDMsMS4zOWwtMC4wOSwwLjE2Yy0wLjA4LDAuMTUtMC4xNSwwLjMxLTAuMjIsMC40OGwtMy4zNS0wLjk4ICAgICBjLTAuMzktMC4xLTAuOCwwLjA5LTAuOTYsMC40NmwtMC45OCwyLjE3Yy0wLjA3LDAuNCwwLjA2LDAuODEsMC4zNSwxLjA5bDMsMS44MmMtMC4yNSwwLjY1LTAuMzcsMS4zNC0wLjM4LDIuMDRsLTMuNDksMC41NyAgICAgQzAuNCwyMy42NiwwLDI0LjAyLDAsMjQuMjl2Mi40YzAsMC40NSwwLjM2LDAuODEsMC44MSwwLjgxQzAuODIsMjcuNSwwLjgzLDI3LjUsMC44NCwyNy41eiIvPiYjeGE7CQk8L2c+JiN4YTsJCTxnIGlkPSJzaGFwZTUyMjEtNCIgdHJhbnNmb3JtPSJ0cmFuc2xhdGUoMTEuMjU3NSwtMjAuMzY4NikiPiYjeGE7CQkJPHRpdGxlIGlkPSJ0aXRsZTc1ODk2Ij5wYXRoNjUxMDwvdGl0bGU+JiN4YTsJCQk8cGF0aCBpZD0icGF0aDc1ODk4IiBpbmtzY2FwZTpjb25uZWN0b3ItY3VydmF0dXJlPSIwIiBzdHlsZT0iZmlsbDojOTI3M0I2OyIgZD0iTTAuODcsNDEuNjJjMi40LTUuNzMsOC45OS04LjQ0LDE0LjcyLTYuMDQgICAgIHM4LjQ0LDguOTksNi4wNCwxNC43MnMtOC45OSw4LjQ0LTE0LjcyLDYuMDRDMi43NCw1NC41OSwwLjAyLDUwLjUyLDAsNDZDLTAuMDEsNDQuNSwwLjI5LDQzLjAxLDAuODcsNDEuNjJ6Ii8+JiN4YTsJCTwvZz4mI3hhOwkJPGcgaWQ9InNoYXBlNTIyMi02IiB0cmFuc2Zvcm09InRyYW5zbGF0ZSgxNC40Mzc1LC0xNi42MTI1KSI+JiN4YTsJCQk8dGl0bGUgaWQ9InRpdGxlNzU5MDEiPnBvbHlsaW5lNjUxMjwvdGl0bGU+JiN4YTsJCQk8cGF0aCBpZD0icGF0aDc1OTAzIiBpbmtzY2FwZTpjb25uZWN0b3ItY3VydmF0dXJlPSIwIiBzdHlsZT0iZmlsbDpub25lOyIgZD0iTTAsNDIuMzNsNS44MSw1LjgxTDE2LjUsMzcuNDZMMCw0Mi4zM3oiLz4mI3hhOwkJCSYjeGE7CQkJCTxwYXRoIGlkPSJwYXRoNzU5MDUiIGlua3NjYXBlOmNvbm5lY3Rvci1jdXJ2YXR1cmU9IjAiIHN0eWxlPSJmaWxsOm5vbmU7c3Ryb2tlOiNGRkZGRkY7c3Ryb2tlLXdpZHRoOjEuNTtzdHJva2UtbWl0ZXJsaW1pdDozOyIgZD0iICAgICBNMCw0Mi4zM2w1LjgxLDUuODFMMTYuNSwzNy40NiIvPiYjeGE7CQk8L2c+JiN4YTsJPC9nPiYjeGE7PC9nPiYjeGE7PC9zdmc+;" parent="1" vertex="1">
          <mxGeometry x="670" y="247.6" width="70" height="70" as="geometry" />
        </mxCell>
        <mxCell id="Fx9dtCml6bJ_47yGWjt6-9" value="" style="shape=image;verticalLabelPosition=bottom;labelBackgroundColor=#ffffff;verticalAlign=top;aspect=fixed;imageAspect=0;image=data:image/svg+xml,PHN2ZyB4bWxuczpjYz0iaHR0cDovL2NyZWF0aXZlY29tbW9ucy5vcmcvbnMjIiB4bWxuczpkYz0iaHR0cDovL3B1cmwub3JnL2RjL2VsZW1lbnRzLzEuMS8iIHhtbG5zOmlua3NjYXBlPSJodHRwOi8vd3d3Lmlua3NjYXBlLm9yZy9uYW1lc3BhY2VzL2lua3NjYXBlIiB4bWxuczpyZGY9Imh0dHA6Ly93d3cudzMub3JnLzE5OTkvMDIvMjItcmRmLXN5bnRheC1ucyMiIHhtbG5zOnNvZGlwb2RpPSJodHRwOi8vc29kaXBvZGkuc291cmNlZm9yZ2UubmV0L0RURC9zb2RpcG9kaS0wLmR0ZCIgeG1sbnM6c3ZnPSJodHRwOi8vd3d3LnczLm9yZy8yMDAwL3N2ZyIgeG1sbnM9Imh0dHA6Ly93d3cudzMub3JnLzIwMDAvc3ZnIiB4bWxuczp4bGluaz0iaHR0cDovL3d3dy53My5vcmcvMTk5OS94bGluayIgdmVyc2lvbj0iMS4xIiBpZD0ic3ZnOTY3NTQiIGlua3NjYXBlOnZlcnNpb249IjAuOTIuMyAoMjQwNTU0NiwgMjAxOC0wMy0xMSkiIHNvZGlwb2RpOmRvY25hbWU9ImF6dXJlX3NxbF9kYXRhYmFzZS5zdmciIHg9IjBweCIgeT0iMHB4IiB2aWV3Qm94PSIwIDAgMzEuMSAzMi42NCIgc3R5bGU9ImVuYWJsZS1iYWNrZ3JvdW5kOm5ldyAwIDAgMzEuMSAzMi42NDsiIHhtbDpzcGFjZT0icHJlc2VydmUiPiYjeGE7PHNvZGlwb2RpOm5hbWVkdmlldyBib3JkZXJjb2xvcj0iIzY2NjY2NiIgYm9yZGVyb3BhY2l0eT0iMSIgZml0LW1hcmdpbi1ib3R0b209IjAiIGZpdC1tYXJnaW4tbGVmdD0iMCIgZml0LW1hcmdpbi1yaWdodD0iMCIgZml0LW1hcmdpbi10b3A9IjAiIGdyaWR0b2xlcmFuY2U9IjEwIiBndWlkZXRvbGVyYW5jZT0iMTAiIGlkPSJuYW1lZHZpZXc5Njc1NiIgaW5rc2NhcGU6Y3VycmVudC1sYXllcj0ic3ZnOTY3NTQiIGlua3NjYXBlOmN4PSIyMC43MzI1MjciIGlua3NjYXBlOmN5PSItMS40Njk5NDMiIGlua3NjYXBlOnBhZ2VvcGFjaXR5PSIwIiBpbmtzY2FwZTpwYWdlc2hhZG93PSIyIiBpbmtzY2FwZTp3aW5kb3ctaGVpZ2h0PSIxMDE3IiBpbmtzY2FwZTp3aW5kb3ctbWF4aW1pemVkPSIxIiBpbmtzY2FwZTp3aW5kb3ctd2lkdGg9IjE5MjAiIGlua3NjYXBlOndpbmRvdy14PSItOCIgaW5rc2NhcGU6d2luZG93LXk9Ii04IiBpbmtzY2FwZTp6b29tPSI5LjQyNjIxNzkiIG9iamVjdHRvbGVyYW5jZT0iMTAiIHBhZ2Vjb2xvcj0iI2ZmZmZmZiIgc2hvd2dyaWQ9ImZhbHNlIj4mI3hhOwk8L3NvZGlwb2RpOm5hbWVkdmlldz4mI3hhOzxnIGlkPSJnOTY3NTIiIHRyYW5zZm9ybT0idHJhbnNsYXRlKC0yMC40NTA2LC0wLjc1MDYpIj4mI3hhOwk8dGl0bGUgaWQ9InRpdGxlOTY3MzIiPlBhZ2UtMTwvdGl0bGU+JiN4YTsJPGcgaWQ9Imdyb3VwMzUyMS0xIiB0cmFuc2Zvcm09InRyYW5zbGF0ZSgyMC40NTA2LC0zNS41OTA5KSI+JiN4YTsJCTx0aXRsZSBpZD0idGl0bGU5NjczNCI+QXp1cmUgU1FMIERhdGFiYXNlPC90aXRsZT4mI3hhOwkJPGcgaWQ9InNoYXBlMzUyMi0yIiB0cmFuc2Zvcm09InRyYW5zbGF0ZSg5Ljg1OTUsLTE1LjcyMzgpIj4mI3hhOwkJCTx0aXRsZSBpZD0idGl0bGU5NjczNiI+U2hlZXQuMzUyMjwvdGl0bGU+JiN4YTsJCQk8cGF0aCBpZD0icGF0aDk2NzM4IiBpbmtzY2FwZTpjb25uZWN0b3ItY3VydmF0dXJlPSIwIiBzdHlsZT0iZmlsbDojM0Y1NzY1OyIgZD0iTTAuMzIsNjguNjRjMC4xLDAuMTIsMC4yMSwwLjIsMC4zNCwwLjI2ICAgICBjMC4xMywwLjA2LDAuMjcsMC4wOCwwLjQyLDAuMDhjMC4xNCwwLDAuMjctMC4wMiwwLjM5LTAuMDhjMC4xMy0wLjA2LDAuMjQtMC4xNSwwLjM0LTAuMjdjMC4xLTAuMTIsMC4xOC0wLjI3LDAuMjQtMC40NiAgICAgYzAuMDUtMC4xOSwwLjA5LTAuNCwwLjA5LTAuNjZjMC0wLjIxLTAuMDItMC40MS0wLjA3LTAuNTljLTAuMDQtMC4xOS0wLjEtMC4zNi0wLjE5LTAuNWMtMC4wNy0wLjE0LTAuMTktMC4yNS0wLjMyLTAuMzQgICAgIGMtMC4xMi0wLjA3LTAuMjgtMC4xMi0wLjQ2LTAuMTJjLTAuMTksMC0wLjM2LDAuMDUtMC41LDAuMTJjLTAuMTQsMC4wOS0wLjI1LDAuMTktMC4zNSwwLjMzYy0wLjA4LDAuMTQtMC4xNSwwLjMtMC4xOSwwLjQ5ICAgICBDMC4wMiw2Ny4wOCwwLDY3LjI3LDAsNjcuNDhjMCwwLjI3LDAuMDMsMC41LDAuMDksMC42OVMwLjIzLDY4LjUyLDAuMzIsNjguNjR6Ii8+JiN4YTsJCTwvZz4mI3hhOwkJPGcgaWQ9InNoYXBlMzUyMy00IiB0cmFuc2Zvcm09InRyYW5zbGF0ZSgwLC0zLjgzODUpIj4mI3hhOwkJCTx0aXRsZSBpZD0idGl0bGU5Njc0MSI+U2hlZXQuMzUyMzwvdGl0bGU+JiN4YTsJCQk8cGF0aCBpZD0icGF0aDk2NzQzIiBpbmtzY2FwZTpjb25uZWN0b3ItY3VydmF0dXJlPSIwIiBzdHlsZT0iZmlsbDojM0Y1NzY1OyIgZD0iTTE0LjUzLDYyLjY2YzAuMjUsMCwwLjUsMC4wMiwwLjc1LDAuMDUgICAgIGMxLjItMi40MSwzLjYzLTMuOTksNi4zNi00LjExVjQ0LjU3YzAtMi4yNS00Ljg1LTQuMzktMTAuODMtNC4zOUM0Ljg0LDQwLjE4LDAsNDIuMjIsMCw0NC40NlY2NC43YzAsMi4wMiwzLjk3LDMuOTQsOS4xNSw0LjI4ICAgICBjLTAuMDQtMC4yOC0wLjA3LTAuNTctMC4wNy0wLjg2QzkuMDgsNjUuMTEsMTEuNTIsNjIuNjYsMTQuNTMsNjIuNjZ6IE0xOC40Miw1OC40OWgtMy43NXYtNS44aDEuNzV2NC40M2gyVjU4LjQ5eiBNMTAuODEsNDEuNzMgICAgIGM0LjI2LDAsNy43MSwxLjA1LDcuNzEsMi4zNnMtMy40NSwyLjM2LTcuNzEsMi4zNlMzLjEsNDUuNCwzLjEsNDQuMDlTNi41NSw0MS43MywxMC44MSw0MS43M3ogTTcuNTcsNTcuMTUgICAgIGMtMC4wMywwLjE0LTAuMDgsMC4yOC0wLjE2LDAuNDJjLTAuMDcsMC4xNC0wLjE3LDAuMjctMC4yOSwwLjM5QzcsNTguMDgsNi44NCw1OC4yLDYuNjUsNTguMjljLTAuMTgsMC4xLTAuNDEsMC4xNy0wLjY2LDAuMjIgICAgIEM1LjczLDU4LjU3LDUuNDMsNTguNiw1LjEsNTguNmMtMC4xOSwwLTAuMzYtMC4wMS0wLjUyLTAuMDRjLTAuMTctMC4wMi0wLjMyLTAuMDMtMC40Ni0wLjA3Yy0wLjE0LTAuMDItMC4yNy0wLjA2LTAuMzktMC4wOSAgICAgYy0wLjEyLTAuMDQtMC4yMS0wLjA4LTAuMy0wLjEyVjU2LjdjMC4xLDAuMDYsMC4yMSwwLjE0LDAuMzQsMC4yMWMwLjEyLDAuMDcsMC4yNiwwLjEzLDAuNCwwLjE5YzAuMTQsMC4wNSwwLjI4LDAuMSwwLjQ0LDAuMTMgICAgIGMwLjE1LDAuMDUsMC4yOSwwLjA2LDAuNDQsMC4wNmMwLjEyLDAsMC4yMy0wLjAxLDAuMzEtMC4wNGMwLjA3LTAuMDIsMC4xMy0wLjA1LDAuMTgtMC4wOWMwLjA0LTAuMDQsMC4wOC0wLjA4LDAuMDktMC4xMyAgICAgYzAuMDItMC4wNSwwLjAzLTAuMDksMC4wMy0wLjE0YzAtMC4wOS0wLjAzLTAuMTctMC4wNy0wLjI0Yy0wLjA0LTAuMDYtMC4xLTAuMTItMC4xOC0wLjE3Yy0wLjA5LTAuMDUtMC4xOC0wLjExLTAuMjktMC4xNSAgICAgYy0wLjExLTAuMDUtMC4yNC0wLjA5LTAuMzctMC4xNWMtMC4yNS0wLjA5LTAuNDctMC4yLTAuNjUtMC4zM2MtMC4xOC0wLjEzLTAuMzItMC4yNi0wLjQ0LTAuNDFjLTAuMTEtMC4xNS0wLjE5LTAuMzEtMC4yNC0wLjQ4ICAgICBjLTAuMDUtMC4xNi0wLjA4LTAuMzQtMC4wOC0wLjUyYzAtMC4yOSwwLjA2LTAuNTQsMC4xNy0wLjc3YzAuMTItMC4yMywwLjI4LTAuNDIsMC40OC0wLjU4YzAuMjEtMC4xNiwwLjQ2LTAuMjksMC43NS0wLjM3ICAgICBjMC4yOC0wLjA5LDAuNjEtMC4xMywwLjk2LTAuMTNjMC4yLDAsMC4zNywwLjAxLDAuNTQsMC4wMmMwLjE2LDAuMDIsMC4zMSwwLjAzLDAuNDQsMC4wNmMwLjEzLDAuMDIsMC4yNCwwLjA0LDAuMzUsMC4wNyAgICAgYzAuMSwwLjAzLDAuMiwwLjA1LDAuMjgsMC4wOHYxLjQ3Yy0wLjA5LTAuMDQtMC4xOC0wLjA5LTAuMjktMC4xNGMtMC4xLTAuMDUtMC4yMi0wLjA5LTAuMzQtMC4xMyAgICAgYy0wLjEyLTAuMDQtMC4yNS0wLjA3LTAuMzktMC4wOWMtMC4xNC0wLjAzLTAuMjgtMC4wNC0wLjQyLTAuMDRjLTAuMiwwLTAuMzUsMC4wNC0wLjQ3LDAuMTFjLTAuMTMsMC4wOC0wLjE5LDAuMTctMC4xOSwwLjMgICAgIGMwLDAuMDYsMC4wMiwwLjEyLDAuMDUsMC4xOGMwLjAyLDAuMDUsMC4wNywwLjA5LDAuMTIsMC4xM2MwLjA2LDAuMDUsMC4xNCwwLjEsMC4yMywwLjE0YzAuMSwwLjA2LDAuMjEsMC4xMSwwLjM1LDAuMTYgICAgIGMwLjI0LDAuMDksMC40NiwwLjIsMC42NywwLjMxYzAuMiwwLjExLDAuMzcsMC4yNCwwLjUyLDAuMzljMC4xNSwwLjE0LDAuMjYsMC4zMSwwLjM0LDAuNDljMC4wOCwwLjE4LDAuMTMsMC40LDAuMTMsMC42NCAgICAgQzcuNjIsNTYuODcsNy42LDU3LjAxLDcuNTcsNTcuMTV6IE04LjIxLDU2Ljg1QzguMDcsNTYuNSw4LDU2LjEsOCw1NS42N2MwLTAuNDYsMC4wNy0wLjg4LDAuMjItMS4yNSAgICAgYzAuMTUtMC4zOCwwLjM1LTAuNywwLjYyLTAuOTdjMC4yNi0wLjI4LDAuNTctMC40OSwwLjkzLTAuNjNjMC4zNy0wLjE1LDAuNzgtMC4yMywxLjIxLTAuMjNjMC40MSwwLDAuOCwwLjA3LDEuMTUsMC4yMSAgICAgYzAuMzUsMC4xNCwwLjY1LDAuMzQsMC45MSwwLjZjMC4yNSwwLjI1LDAuNDUsMC41NiwwLjU5LDAuOTNzMC4yMSwwLjc5LDAuMjEsMS4yNWMwLDAuMzMtMC4wMywwLjY0LTAuMTIsMC45MiAgICAgYy0wLjA4LDAuMjktMC4xOSwwLjU1LTAuMzQsMC43OGMtMC4xNCwwLjIzLTAuMzEsMC40My0wLjUsMC42Yy0wLjIsMC4xOC0wLjQxLDAuMzItMC42NCwwLjQybDEuOTUsMS42N2gtMi4yMmwtMS4yOC0xLjM3ICAgICBjLTAuMzctMC4wMy0wLjcyLTAuMTItMS4wNC0wLjI2Yy0wLjMzLTAuMTQtMC42Mi0wLjMzLTAuODYtMC41OUM4LjU1LDU3LjUsOC4zNiw1Ny4yMSw4LjIxLDU2Ljg1eiIvPiYjeGE7CQk8L2c+JiN4YTsJCTxnIGlkPSJzaGFwZTM1MjQtNiIgdHJhbnNmb3JtPSJ0cmFuc2xhdGUoOS44MjgpIj4mI3hhOwkJCTx0aXRsZSBpZD0idGl0bGU5Njc0NiI+U2hlZXQuMzUyNDwvdGl0bGU+JiN4YTsJCQk8cGF0aCBpZD0icGF0aDk2NzQ4IiBpbmtzY2FwZTpjb25uZWN0b3ItY3VydmF0dXJlPSIwIiBzdHlsZT0iZmlsbDojM0Y1NzY1OyIgZD0iTTIxLjI3LDY2LjIzYzAtMS40NS0xLjEzLTIuNjUtMi41Ni0yLjc0ICAgICBjMC4wOC0wLjQzLDAuMTItMC44NiwwLjEyLTEuMjljMC0zLjctMy4wMS02LjcxLTYuNzEtNi43MWMtMi43NiwwLTUuMjIsMS42OS02LjIzLDQuMjRjLTAuMzktMC4xLTAuNzktMC4xNi0xLjE5LTAuMTYgICAgIGMtMi41OSwwLTQuNywyLjExLTQuNyw0LjcxYzAsMi41NSwyLjA0LDQuNjQsNC42Myw0LjdoMTQuMDloMC41MmgtMC4wMkMyMC40LDY4LjY3LDIxLjI3LDY3LjQ5LDIxLjI3LDY2LjIzeiBNMTguNjgsNjguMjIgICAgIEw0LjcsNjguMjNjLTIuMTgsMC0zLjk1LTEuNzctMy45NS0zLjk1czEuNzctMy45NiwzLjk1LTMuOTZjMC40NCwwLDAuODcsMC4wOCwxLjMsMC4yMmwwLjM1LDAuMTNsMC4xMi0wLjM2ICAgICBjMC44Mi0yLjQzLDMuMDktNC4wNyw1LjY1LTQuMDdjMy4yOSwwLDUuOTYsMi42OCw1Ljk2LDUuOTZjMCwwLjUzLTAuMDcsMS4wNi0wLjIxLDEuNThsLTAuMTUsMC41NGwwLjU2LTAuMDcgICAgIGMwLjA4LTAuMDEsMC4xNi0wLjAyLDAuMjQtMC4wMmMxLjExLDAsMiwwLjksMiwyQzIwLjUyLDY3LjI3LDE5LjcxLDY4LjE0LDE4LjY4LDY4LjIyeiIvPiYjeGE7CQk8L2c+JiN4YTsJPC9nPiYjeGE7PC9nPiYjeGE7PC9zdmc+;" parent="1" vertex="1">
          <mxGeometry x="970" y="430" width="121" height="128.8" as="geometry" />
        </mxCell>
        <mxCell id="Fx9dtCml6bJ_47yGWjt6-30" style="edgeStyle=orthogonalEdgeStyle;rounded=0;orthogonalLoop=1;jettySize=auto;html=1;entryX=0;entryY=0.5;entryDx=0;entryDy=0;" parent="1" source="Fx9dtCml6bJ_47yGWjt6-11" target="Fx9dtCml6bJ_47yGWjt6-7" edge="1">
          <mxGeometry relative="1" as="geometry" />
        </mxCell>
        <mxCell id="Fx9dtCml6bJ_47yGWjt6-11" value="API-Gateway" style="shape=image;verticalLabelPosition=bottom;labelBackgroundColor=#ffffff;verticalAlign=top;aspect=fixed;imageAspect=0;image=data:image/svg+xml,PHN2ZyB4bWxuczpjYz0iaHR0cDovL2NyZWF0aXZlY29tbW9ucy5vcmcvbnMjIiB4bWxuczpkYz0iaHR0cDovL3B1cmwub3JnL2RjL2VsZW1lbnRzLzEuMS8iIHhtbG5zOmlua3NjYXBlPSJodHRwOi8vd3d3Lmlua3NjYXBlLm9yZy9uYW1lc3BhY2VzL2lua3NjYXBlIiB4bWxuczpyZGY9Imh0dHA6Ly93d3cudzMub3JnLzE5OTkvMDIvMjItcmRmLXN5bnRheC1ucyMiIHhtbG5zOnNvZGlwb2RpPSJodHRwOi8vc29kaXBvZGkuc291cmNlZm9yZ2UubmV0L0RURC9zb2RpcG9kaS0wLmR0ZCIgeG1sbnM6c3ZnPSJodHRwOi8vd3d3LnczLm9yZy8yMDAwL3N2ZyIgeG1sbnM9Imh0dHA6Ly93d3cudzMub3JnLzIwMDAvc3ZnIiB4bWxuczp4bGluaz0iaHR0cDovL3d3dy53My5vcmcvMTk5OS94bGluayIgdmVyc2lvbj0iMS4xIiBpZD0ic3ZnODU3NTMiIGlua3NjYXBlOnZlcnNpb249IjAuOTIuMyAoMjQwNTU0NiwgMjAxOC0wMy0xMSkiIHNvZGlwb2RpOmRvY25hbWU9InJlZHVuZGFuY3kuc3ZnIiB4PSIwcHgiIHk9IjBweCIgdmlld0JveD0iMCAwIDUzLjkzIDU2LjM5IiBzdHlsZT0iZW5hYmxlLWJhY2tncm91bmQ6bmV3IDAgMCA1My45MyA1Ni4zOTsiIHhtbDpzcGFjZT0icHJlc2VydmUiPiYjeGE7PHNvZGlwb2RpOm5hbWVkdmlldyBib3JkZXJjb2xvcj0iIzY2NjY2NiIgYm9yZGVyb3BhY2l0eT0iMSIgZml0LW1hcmdpbi1ib3R0b209IjAiIGZpdC1tYXJnaW4tbGVmdD0iMCIgZml0LW1hcmdpbi1yaWdodD0iMCIgZml0LW1hcmdpbi10b3A9IjAiIGdyaWR0b2xlcmFuY2U9IjEwIiBndWlkZXRvbGVyYW5jZT0iMTAiIGlkPSJuYW1lZHZpZXc4NTc1NSIgaW5rc2NhcGU6Y3VycmVudC1sYXllcj0ic3ZnODU3NTMiIGlua3NjYXBlOmN4PSIzNS41NzQ2MjIiIGlua3NjYXBlOmN5PSIzMi40NDE3MTciIGlua3NjYXBlOnBhZ2VvcGFjaXR5PSIwIiBpbmtzY2FwZTpwYWdlc2hhZG93PSIyIiBpbmtzY2FwZTp3aW5kb3ctaGVpZ2h0PSIxMDE3IiBpbmtzY2FwZTp3aW5kb3ctbWF4aW1pemVkPSIxIiBpbmtzY2FwZTp3aW5kb3ctd2lkdGg9IjE5MjAiIGlua3NjYXBlOndpbmRvdy14PSItOCIgaW5rc2NhcGU6d2luZG93LXk9Ii04IiBpbmtzY2FwZTp6b29tPSI4LjE1NDQ0ODMiIG9iamVjdHRvbGVyYW5jZT0iMTAiIHBhZ2Vjb2xvcj0iI2ZmZmZmZiIgc2hvd2dyaWQ9ImZhbHNlIj4mI3hhOwk8L3NvZGlwb2RpOm5hbWVkdmlldz4mI3hhOzxnIGlkPSJnODU3NTEiIHRyYW5zZm9ybT0idHJhbnNsYXRlKDAuMDAyOTk4NzIsLTAuMDAzMDA2NSkiPiYjeGE7CTx0aXRsZSBpZD0idGl0bGU4NTY0NiI+UGFnZS0xPC90aXRsZT4mI3hhOwk8ZyBpZD0iZ3JvdXAxOTI2LTEiIHRyYW5zZm9ybT0idHJhbnNsYXRlKDAuNDE5Nzk3LC0wLjQxOTc5NykiPiYjeGE7CQk8dGl0bGUgaWQ9InRpdGxlODU2NDgiPlJlZHVuZGFuY3k8L3RpdGxlPiYjeGE7CQk8ZyBpZD0ic2hhcGUxOTI3LTIiIHRyYW5zZm9ybT0idHJhbnNsYXRlKDE1LjQ3OTgsLTM5LjYyNzEpIj4mI3hhOwkJCTx0aXRsZSBpZD0idGl0bGU4NTY1MCI+U2hlZXQuMTkyNzwvdGl0bGU+JiN4YTsJCQk8cGF0aCBpZD0icGF0aDg1NjUyIiBpbmtzY2FwZTpjb25uZWN0b3ItY3VydmF0dXJlPSIwIiBzdHlsZT0iZmlsbDojQ0JENUVBOyIgZD0iTTAsNTIuNjhsMi4xNC0zLjdoNC4zMmwyLjE0LDMuN2wtMi4xNCwzLjcxICAgICBIMi4xNEwwLDUyLjY4eiIvPiYjeGE7CQk8L2c+JiN4YTsJCTxnIGlkPSJzaGFwZTE5MjgtNCIgdHJhbnNmb3JtPSJ0cmFuc2xhdGUoMTUuMTM1NiwtMTcuOTI2MykiPiYjeGE7CQkJPHRpdGxlIGlkPSJ0aXRsZTg1NjU1Ij5TaGVldC4xOTI4PC90aXRsZT4mI3hhOwkJCTxwYXRoIGlkPSJwYXRoODU2NTciIGlua3NjYXBlOmNvbm5lY3Rvci1jdXJ2YXR1cmU9IjAiIHN0eWxlPSJmaWxsOiM3RkJBMDA7IiBkPSJNMCw0Ni41NGw1LjY0LTkuODVoMTEuNTNsNS42NCw5Ljg1bC01LjY0LDkuODUgICAgIEg1LjY0TDAsNDYuNTR6Ii8+JiN4YTsJCTwvZz4mI3hhOwkJPGcgaWQ9InNoYXBlMTkyOS02IiB0cmFuc2Zvcm09InRyYW5zbGF0ZSgxNS4xMzU2LC0xNy45MjYzKSI+JiN4YTsJCQk8dGl0bGUgaWQ9InRpdGxlODU2NjAiPlNoZWV0LjE5Mjk8L3RpdGxlPiYjeGE7CQkJJiN4YTsJCQkJPHBhdGggaWQ9InBhdGg4NTY2MiIgaW5rc2NhcGU6Y29ubmVjdG9yLWN1cnZhdHVyZT0iMCIgc3R5bGU9ImZpbGw6bm9uZTtzdHJva2U6I0ZGRkZGRjtzdHJva2Utd2lkdGg6MC44Mzk2O3N0cm9rZS1saW5lY2FwOnJvdW5kO3N0cm9rZS1saW5lam9pbjpyb3VuZDtzdHJva2UtbWl0ZXJsaW1pdDozOyIgZD0iICAgICBNMCw0Ni41NGw1LjY0LTkuODVoMTEuNTNsNS42NCw5Ljg1bC01LjY0LDkuODVINS42NEwwLDQ2LjU0TDAsNDYuNTQiLz4mI3hhOwkJPC9nPiYjeGE7CQk8ZyBpZD0ic2hhcGUxOTMwLTkiIHRyYW5zZm9ybT0idHJhbnNsYXRlKDI5LjQwNjksLTM5LjY2MSkiPiYjeGE7CQkJPHRpdGxlIGlkPSJ0aXRsZTg1NjY1Ij5TaGVldC4xOTMwPC90aXRsZT4mI3hhOwkJCTxwYXRoIGlkPSJwYXRoODU2NjciIGlua3NjYXBlOmNvbm5lY3Rvci1jdXJ2YXR1cmU9IjAiIHN0eWxlPSJmaWxsOiNDQkQ1RUE7IiBkPSJNMCw1Mi42OGwyLjE0LTMuN2g0LjMybDIuMTQsMy43bC0yLjE0LDMuNzEgICAgIEgyLjE0TDAsNTIuNjh6Ii8+JiN4YTsJCTwvZz4mI3hhOwkJPGcgaWQ9InNoYXBlMTkzMS0xMSIgdHJhbnNmb3JtPSJ0cmFuc2xhdGUoMTcuMjQzNiwtMzkuMzg3NCkiPiYjeGE7CQkJPHRpdGxlIGlkPSJ0aXRsZTg1NjcwIj5TaGVldC4xOTMxPC90aXRsZT4mI3hhOwkJCTxwYXRoIGlkPSJwYXRoODU2NzIiIGlua3NjYXBlOmNvbm5lY3Rvci1jdXJ2YXR1cmU9IjAiIHN0eWxlPSJmaWxsOiMzRjU3NjU7IiBkPSJNMCw0OC4zMWw0LjYyLTguMDhoOS40NGw0LjYyLDguMDhsLTQuNjIsOC4wOCAgICAgSDQuNjJMMCw0OC4zMXoiLz4mI3hhOwkJPC9nPiYjeGE7CQk8ZyBpZD0ic2hhcGUxOTMyLTEzIiB0cmFuc2Zvcm09InRyYW5zbGF0ZSgxNy4yNDM2LC0zOS4zODc0KSI+JiN4YTsJCQk8dGl0bGUgaWQ9InRpdGxlODU2NzUiPlNoZWV0LjE5MzI8L3RpdGxlPiYjeGE7CQkJJiN4YTsJCQkJPHBhdGggaWQ9InBhdGg4NTY3NyIgaW5rc2NhcGU6Y29ubmVjdG9yLWN1cnZhdHVyZT0iMCIgc3R5bGU9ImZpbGw6bm9uZTtzdHJva2U6I0ZGRkZGRjtzdHJva2Utd2lkdGg6MC44Mzk2O3N0cm9rZS1saW5lY2FwOnJvdW5kO3N0cm9rZS1saW5lam9pbjpyb3VuZDtzdHJva2UtbWl0ZXJsaW1pdDozOyIgZD0iICAgICBNMCw0OC4zMWw0LjYyLTguMDhoOS40NGw0LjYyLDguMDhsLTQuNjIsOC4wOEg0LjYyTDAsNDguMzFMMCw0OC4zMSIvPiYjeGE7CQk8L2c+JiN4YTsJCTxnIGlkPSJzaGFwZTE5MzMtMTYiIHRyYW5zZm9ybT0idHJhbnNsYXRlKDM5LjQ0MTEsLTI1LjgxNjQpIj4mI3hhOwkJCTx0aXRsZSBpZD0idGl0bGU4NTY4MCI+U2hlZXQuMTkzMzwvdGl0bGU+JiN4YTsJCQk8cGF0aCBpZD0icGF0aDg1NjgyIiBpbmtzY2FwZTpjb25uZWN0b3ItY3VydmF0dXJlPSIwIiBzdHlsZT0iZmlsbDojQ0JENUVBOyIgZD0iTTAsNTIuNjhsMi4xNC0zLjdoNC4zMmwyLjE0LDMuN2wtMi4xNCwzLjcxICAgICBIMi4xNEwwLDUyLjY4eiIvPiYjeGE7CQk8L2c+JiN4YTsJCTxnIGlkPSJzaGFwZTE5MzQtMTgiIHRyYW5zZm9ybT0idHJhbnNsYXRlKDM0LjQwMjksLTI5LjQ1NjQpIj4mI3hhOwkJCTx0aXRsZSBpZD0idGl0bGU4NTY4NSI+U2hlZXQuMTkzNDwvdGl0bGU+JiN4YTsJCQk8cGF0aCBpZD0icGF0aDg1Njg3IiBpbmtzY2FwZTpjb25uZWN0b3ItY3VydmF0dXJlPSIwIiBzdHlsZT0iZmlsbDojM0Y1NzY1OyIgZD0iTTAsNDguMzFsNC42Mi04LjA4aDkuNDRsNC42Miw4LjA4bC00LjYyLDguMDggICAgIEg0LjYyTDAsNDguMzF6Ii8+JiN4YTsJCTwvZz4mI3hhOwkJPGcgaWQ9InNoYXBlMTkzNS0yMCIgdHJhbnNmb3JtPSJ0cmFuc2xhdGUoMzQuNDAyOSwtMjkuNDU2NCkiPiYjeGE7CQkJPHRpdGxlIGlkPSJ0aXRsZTg1NjkwIj5TaGVldC4xOTM1PC90aXRsZT4mI3hhOwkJCSYjeGE7CQkJCTxwYXRoIGlkPSJwYXRoODU2OTIiIGlua3NjYXBlOmNvbm5lY3Rvci1jdXJ2YXR1cmU9IjAiIHN0eWxlPSJmaWxsOm5vbmU7c3Ryb2tlOiNGRkZGRkY7c3Ryb2tlLXdpZHRoOjAuODM5NjtzdHJva2UtbGluZWNhcDpyb3VuZDtzdHJva2UtbGluZWpvaW46cm91bmQ7c3Ryb2tlLW1pdGVybGltaXQ6MzsiIGQ9IiAgICAgTTAsNDguMzFsNC42Mi04LjA4aDkuNDRsNC42Miw4LjA4bC00LjYyLDguMDhINC42MkwwLDQ4LjMxTDAsNDguMzEiLz4mI3hhOwkJPC9nPiYjeGE7CQk8ZyBpZD0ic2hhcGUxOTM2LTIzIiB0cmFuc2Zvcm09InRyYW5zbGF0ZSgzMi40ODQ2LC0xMC4yMDQ1KSI+JiN4YTsJCQk8dGl0bGUgaWQ9InRpdGxlODU2OTUiPlNoZWV0LjE5MzY8L3RpdGxlPiYjeGE7CQkJPHBhdGggaWQ9InBhdGg4NTY5NyIgaW5rc2NhcGU6Y29ubmVjdG9yLWN1cnZhdHVyZT0iMCIgc3R5bGU9ImZpbGw6I0NCRDVFQTsiIGQ9Ik0wLDUyLjY4bDIuMTQtMy43aDQuMzJsMi4xNCwzLjdsLTIuMTQsMy43MSAgICAgSDIuMTRMMCw1Mi42OHoiLz4mI3hhOwkJPC9nPiYjeGE7CQk8ZyBpZD0ic2hhcGUxOTM3LTI1IiB0cmFuc2Zvcm09InRyYW5zbGF0ZSgzNC40MDI5LC05LjkzMTAyKSI+JiN4YTsJCQk8dGl0bGUgaWQ9InRpdGxlODU3MDAiPlNoZWV0LjE5Mzc8L3RpdGxlPiYjeGE7CQkJPHBhdGggaWQ9InBhdGg4NTcwMiIgaW5rc2NhcGU6Y29ubmVjdG9yLWN1cnZhdHVyZT0iMCIgc3R5bGU9ImZpbGw6IzNGNTc2NTsiIGQ9Ik0wLDQ4LjMxbDQuNjItOC4wOGg5LjQ0bDQuNjIsOC4wOGwtNC42Miw4LjA4ICAgICBINC42MkwwLDQ4LjMxeiIvPiYjeGE7CQk8L2c+JiN4YTsJCTxnIGlkPSJzaGFwZTE5MzgtMjciIHRyYW5zZm9ybT0idHJhbnNsYXRlKDM0LjQwMjksLTkuOTMxMDIpIj4mI3hhOwkJCTx0aXRsZSBpZD0idGl0bGU4NTcwNSI+U2hlZXQuMTkzODwvdGl0bGU+JiN4YTsJCQkmI3hhOwkJCQk8cGF0aCBpZD0icGF0aDg1NzA3IiBpbmtzY2FwZTpjb25uZWN0b3ItY3VydmF0dXJlPSIwIiBzdHlsZT0iZmlsbDpub25lO3N0cm9rZTojRkZGRkZGO3N0cm9rZS13aWR0aDowLjgzOTY7c3Ryb2tlLWxpbmVjYXA6cm91bmQ7c3Ryb2tlLWxpbmVqb2luOnJvdW5kO3N0cm9rZS1taXRlcmxpbWl0OjM7IiBkPSIgICAgIE0wLDQ4LjMxbDQuNjItOC4wOGg5LjQ0bDQuNjIsOC4wOGwtNC42Miw4LjA4SDQuNjJMMCw0OC4zMUwwLDQ4LjMxIi8+JiN4YTsJCTwvZz4mI3hhOwkJPGcgaWQ9InNoYXBlMTkzOS0zMCIgdHJhbnNmb3JtPSJ0cmFuc2xhdGUoMTUuMTU2NywtOC41NjM0KSI+JiN4YTsJCQk8dGl0bGUgaWQ9InRpdGxlODU3MTAiPlNoZWV0LjE5Mzk8L3RpdGxlPiYjeGE7CQkJPHBhdGggaWQ9InBhdGg4NTcxMiIgaW5rc2NhcGU6Y29ubmVjdG9yLWN1cnZhdHVyZT0iMCIgc3R5bGU9ImZpbGw6I0NCRDVFQTsiIGQ9Ik0wLDUyLjY4bDIuMTQtMy43aDQuMzJsMi4xNCwzLjdsLTIuMTQsMy43MSAgICAgSDIuMTRMMCw1Mi42OHoiLz4mI3hhOwkJPC9nPiYjeGE7CQk8ZyBpZD0ic2hhcGUxOTQwLTMyIiB0cmFuc2Zvcm09InRyYW5zbGF0ZSgxNy4yNDM2KSI+JiN4YTsJCQk8dGl0bGUgaWQ9InRpdGxlODU3MTUiPlNoZWV0LjE5NDA8L3RpdGxlPiYjeGE7CQkJPHBhdGggaWQ9InBhdGg4NTcxNyIgaW5rc2NhcGU6Y29ubmVjdG9yLWN1cnZhdHVyZT0iMCIgc3R5bGU9ImZpbGw6IzNGNTc2NTsiIGQ9Ik0wLDQ4LjMzbDQuNjItOC4wNmg5LjQ0bDQuNjIsOC4wNmwtNC42Miw4LjA2ICAgICBINC42MkwwLDQ4LjMzeiIvPiYjeGE7CQk8L2c+JiN4YTsJCTxnIGlkPSJzaGFwZTE5NDEtMzQiIHRyYW5zZm9ybT0idHJhbnNsYXRlKDE3LjI0MzYpIj4mI3hhOwkJCTx0aXRsZSBpZD0idGl0bGU4NTcyMCI+U2hlZXQuMTk0MTwvdGl0bGU+JiN4YTsJCQkmI3hhOwkJCQk8cGF0aCBpZD0icGF0aDg1NzIyIiBpbmtzY2FwZTpjb25uZWN0b3ItY3VydmF0dXJlPSIwIiBzdHlsZT0iZmlsbDpub25lO3N0cm9rZTojRkZGRkZGO3N0cm9rZS13aWR0aDowLjgzOTY7c3Ryb2tlLWxpbmVjYXA6cm91bmQ7c3Ryb2tlLWxpbmVqb2luOnJvdW5kO3N0cm9rZS1taXRlcmxpbWl0OjM7IiBkPSIgICAgIE0wLDQ4LjMzbDQuNjItOC4wNmg5LjQ0bDQuNjIsOC4wNmwtNC42Miw4LjA2SDQuNjJMMCw0OC4zM0wwLDQ4LjMzIi8+JiN4YTsJCTwvZz4mI3hhOwkJPGcgaWQ9InNoYXBlMTk0Mi0zNyIgdHJhbnNmb3JtPSJ0cmFuc2xhdGUoNC45NTM4NSwtMjIuNDA3OSkiPiYjeGE7CQkJPHRpdGxlIGlkPSJ0aXRsZTg1NzI1Ij5TaGVldC4xOTQyPC90aXRsZT4mI3hhOwkJCTxwYXRoIGlkPSJwYXRoODU3MjciIGlua3NjYXBlOmNvbm5lY3Rvci1jdXJ2YXR1cmU9IjAiIHN0eWxlPSJmaWxsOiNDQkQ1RUE7IiBkPSJNMCw1Mi42OGwyLjE0LTMuN2g0LjMybDIuMTQsMy43bC0yLjE0LDMuNzEgICAgIEgyLjE0TDAsNTIuNjh6Ii8+JiN4YTsJCTwvZz4mI3hhOwkJPGcgaWQ9InNoYXBlMTk0My0zOSIgdHJhbnNmb3JtPSJ0cmFuc2xhdGUoMCwtOS45MzEwMikiPiYjeGE7CQkJPHRpdGxlIGlkPSJ0aXRsZTg1NzMwIj5TaGVldC4xOTQzPC90aXRsZT4mI3hhOwkJCTxwYXRoIGlkPSJwYXRoODU3MzIiIGlua3NjYXBlOmNvbm5lY3Rvci1jdXJ2YXR1cmU9IjAiIHN0eWxlPSJmaWxsOiMzRjU3NjU7IiBkPSJNMCw0OC4zM2w0LjYzLTguMDZoOS40Nmw0LjYzLDguMDZsLTQuNjMsOC4wNiAgICAgSDQuNjNMMCw0OC4zM3oiLz4mI3hhOwkJPC9nPiYjeGE7CQk8ZyBpZD0ic2hhcGUxOTQ0LTQxIiB0cmFuc2Zvcm09InRyYW5zbGF0ZSgwLC05LjkzMTAyKSI+JiN4YTsJCQk8dGl0bGUgaWQ9InRpdGxlODU3MzUiPlNoZWV0LjE5NDQ8L3RpdGxlPiYjeGE7CQkJJiN4YTsJCQkJPHBhdGggaWQ9InBhdGg4NTczNyIgaW5rc2NhcGU6Y29ubmVjdG9yLWN1cnZhdHVyZT0iMCIgc3R5bGU9ImZpbGw6bm9uZTtzdHJva2U6I0ZGRkZGRjtzdHJva2Utd2lkdGg6MC44Mzk2O3N0cm9rZS1saW5lY2FwOnJvdW5kO3N0cm9rZS1saW5lam9pbjpyb3VuZDtzdHJva2UtbWl0ZXJsaW1pdDozOyIgZD0iICAgICBNMCw0OC4zM2w0LjYzLTguMDZoOS40Nmw0LjYzLDguMDZsLTQuNjMsOC4wNkg0LjYzTDAsNDguMzNMMCw0OC4zMyIvPiYjeGE7CQk8L2c+JiN4YTsJCTxnIGlkPSJzaGFwZTE5NDUtNDQiIHRyYW5zZm9ybT0idHJhbnNsYXRlKDAsLTI5LjQ1NjQpIj4mI3hhOwkJCTx0aXRsZSBpZD0idGl0bGU4NTc0MCI+U2hlZXQuMTk0NTwvdGl0bGU+JiN4YTsJCQk8cGF0aCBpZD0icGF0aDg1NzQyIiBpbmtzY2FwZTpjb25uZWN0b3ItY3VydmF0dXJlPSIwIiBzdHlsZT0iZmlsbDojM0Y1NzY1OyIgZD0iTTAsNDguMzFsNC42My04LjA4aDkuNDZsNC42Myw4LjA4bC00LjYzLDguMDggICAgIEg0LjYzTDAsNDguMzF6Ii8+JiN4YTsJCTwvZz4mI3hhOwkJPGcgaWQ9InNoYXBlMTk0Ni00NiIgdHJhbnNmb3JtPSJ0cmFuc2xhdGUoMCwtMjkuNDU2NCkiPiYjeGE7CQkJPHRpdGxlIGlkPSJ0aXRsZTg1NzQ1Ij5TaGVldC4xOTQ2PC90aXRsZT4mI3hhOwkJCSYjeGE7CQkJCTxwYXRoIGlkPSJwYXRoODU3NDciIGlua3NjYXBlOmNvbm5lY3Rvci1jdXJ2YXR1cmU9IjAiIHN0eWxlPSJmaWxsOm5vbmU7c3Ryb2tlOiNGRkZGRkY7c3Ryb2tlLXdpZHRoOjAuODM5NjtzdHJva2UtbGluZWNhcDpyb3VuZDtzdHJva2UtbGluZWpvaW46cm91bmQ7c3Ryb2tlLW1pdGVybGltaXQ6MzsiIGQ9IiAgICAgTTAsNDguMzFsNC42My04LjA4aDkuNDZsNC42Myw4LjA4bC00LjYzLDguMDhINC42M0wwLDQ4LjMxTDAsNDguMzEiLz4mI3hhOwkJPC9nPiYjeGE7CTwvZz4mI3hhOzwvZz4mI3hhOzwvc3ZnPg==;" parent="1" vertex="1">
          <mxGeometry x="490" y="210" width="140" height="145.19" as="geometry" />
        </mxCell>
        <mxCell id="Fx9dtCml6bJ_47yGWjt6-23" style="edgeStyle=orthogonalEdgeStyle;rounded=0;orthogonalLoop=1;jettySize=auto;html=1;exitX=1;exitY=0.5;exitDx=0;exitDy=0;" parent="1" source="Fx9dtCml6bJ_47yGWjt6-12" target="Fx9dtCml6bJ_47yGWjt6-21" edge="1">
          <mxGeometry relative="1" as="geometry" />
        </mxCell>
        <mxCell id="Fx9dtCml6bJ_47yGWjt6-12" value="Airdb oauth2" style="shape=image;verticalLabelPosition=bottom;labelBackgroundColor=#ffffff;verticalAlign=top;aspect=fixed;imageAspect=0;image=data:image/svg+xml,PHN2ZyB4bWxuczpjYz0iaHR0cDovL2NyZWF0aXZlY29tbW9ucy5vcmcvbnMjIiB4bWxuczpkYz0iaHR0cDovL3B1cmwub3JnL2RjL2VsZW1lbnRzLzEuMS8iIHhtbG5zOmlua3NjYXBlPSJodHRwOi8vd3d3Lmlua3NjYXBlLm9yZy9uYW1lc3BhY2VzL2lua3NjYXBlIiB4bWxuczpyZGY9Imh0dHA6Ly93d3cudzMub3JnLzE5OTkvMDIvMjItcmRmLXN5bnRheC1ucyMiIHhtbG5zOnNvZGlwb2RpPSJodHRwOi8vc29kaXBvZGkuc291cmNlZm9yZ2UubmV0L0RURC9zb2RpcG9kaS0wLmR0ZCIgeG1sbnM6c3ZnPSJodHRwOi8vd3d3LnczLm9yZy8yMDAwL3N2ZyIgeG1sbnM9Imh0dHA6Ly93d3cudzMub3JnLzIwMDAvc3ZnIiB4bWxuczp4bGluaz0iaHR0cDovL3d3dy53My5vcmcvMTk5OS94bGluayIgdmVyc2lvbj0iMS4xIiBpZD0ic3ZnMTAwMDk5IiBpbmtzY2FwZTp2ZXJzaW9uPSIwLjkyLjMgKDI0MDU1NDYsIDIwMTgtMDMtMTEpIiBzb2RpcG9kaTpkb2NuYW1lPSJzZWN1cml0eV9rZXkuc3ZnIiB4PSIwcHgiIHk9IjBweCIgdmlld0JveD0iMCAwIDU4LjcyIDQ1IiBzdHlsZT0iZW5hYmxlLWJhY2tncm91bmQ6bmV3IDAgMCA1OC43MiA0NTsiIHhtbDpzcGFjZT0icHJlc2VydmUiPiYjeGE7PHNvZGlwb2RpOm5hbWVkdmlldyBib3JkZXJjb2xvcj0iIzY2NjY2NiIgYm9yZGVyb3BhY2l0eT0iMSIgZml0LW1hcmdpbi1ib3R0b209IjAiIGZpdC1tYXJnaW4tbGVmdD0iMCIgZml0LW1hcmdpbi1yaWdodD0iMCIgZml0LW1hcmdpbi10b3A9IjAiIGdyaWR0b2xlcmFuY2U9IjEwIiBndWlkZXRvbGVyYW5jZT0iMTAiIGlkPSJuYW1lZHZpZXcxMDAxMDEiIGlua3NjYXBlOmN1cnJlbnQtbGF5ZXI9InN2ZzEwMDA5OSIgaW5rc2NhcGU6Y3g9IjM5LjE0NTA0NiIgaW5rc2NhcGU6Y3k9IjI5Ljk5OTk4NSIgaW5rc2NhcGU6cGFnZW9wYWNpdHk9IjAiIGlua3NjYXBlOnBhZ2VzaGFkb3c9IjIiIGlua3NjYXBlOndpbmRvdy1oZWlnaHQ9IjEwMTciIGlua3NjYXBlOndpbmRvdy1tYXhpbWl6ZWQ9IjEiIGlua3NjYXBlOndpbmRvdy13aWR0aD0iMTkyMCIgaW5rc2NhcGU6d2luZG93LXg9Ii04IiBpbmtzY2FwZTp3aW5kb3cteT0iLTgiIGlua3NjYXBlOnpvb209IjEzLjk4Mzg3OCIgb2JqZWN0dG9sZXJhbmNlPSIxMCIgcGFnZWNvbG9yPSIjZmZmZmZmIiBzaG93Z3JpZD0iZmFsc2UiPiYjeGE7CTwvc29kaXBvZGk6bmFtZWR2aWV3PiYjeGE7PGcgaWQ9ImcxMDAwOTciIHRyYW5zZm9ybT0idHJhbnNsYXRlKC0wLjc1MDAzMDk3LC0wLjc1MTg5OTc2KSI+JiN4YTsJPHRpdGxlIGlkPSJ0aXRsZTEwMDA1MSI+UGFnZS0xPC90aXRsZT4mI3hhOwk8ZyBpZD0iZ3JvdXA0OTU1LTEiIHRyYW5zZm9ybT0idHJhbnNsYXRlKDEuNSwtMS41KSI+JiN4YTsJCTx0aXRsZSBpZD0idGl0bGUxMDAwNTMiPlNlY3VyaXR5IEtleTwvdGl0bGU+JiN4YTsJCTxnIGlkPSJncm91cDQ5NTYtMiI+JiN4YTsJCQk8dGl0bGUgaWQ9InRpdGxlMTAwMDU1Ij5nNjYwMjwvdGl0bGU+JiN4YTsJCQk8ZyBpZD0ic2hhcGU0OTU3LTMiIHRyYW5zZm9ybT0idHJhbnNsYXRlKDYuODgyNjQsLTE2LjQ3ODEpIj4mI3hhOwkJCQk8dGl0bGUgaWQ9InRpdGxlMTAwMDU3Ij5yZWN0NjU5NDwvdGl0bGU+JiN4YTsJCQkJJiN4YTsJCQkJCTxwYXRoIGlkPSJwYXRoMTAwMDU5IiBpbmtzY2FwZTpjb25uZWN0b3ItY3VydmF0dXJlPSIwIiBzdHlsZT0iZmlsbDpub25lO3N0cm9rZTojNTU2QThBO3N0cm9rZS13aWR0aDoxLjU7c3Ryb2tlLW1pdGVybGltaXQ6MzsiIGQ9IiAgICAgIE0wLDQwLjE0YzAsMy41MSwyLjg0LDYuMzYsNi4zNiw2LjM2YzAsMCwwLDAsMCwwaDcuOTVjMy41MSwwLDYuMzUtMi44NSw2LjM1LTYuMzZ2LTE0LjNjMC0zLjUxLTIuODQtNi4zNi02LjM1LTYuMzZINi4zNiAgICAgIEMyLjg1LDE5LjQ4LDAsMjIuMzIsMCwyNS44NGMwLDAsMCwwLDAsMFY0MC4xNHoiLz4mI3hhOwkJCTwvZz4mI3hhOwkJCTxnIGlkPSJzaGFwZTQ5NTgtNSIgdHJhbnNmb3JtPSJ0cmFuc2xhdGUoMC41Mjk4NDIpIj4mI3hhOwkJCQk8dGl0bGUgaWQ9InRpdGxlMTAwMDYyIj5wYXRoNjU5NjwvdGl0bGU+JiN4YTsJCQkJPHBhdGggaWQ9InBhdGgxMDAwNjQiIGlua3NjYXBlOmNvbm5lY3Rvci1jdXJ2YXR1cmU9IjAiIHN0eWxlPSJmaWxsOiNGRkZGRkY7IiBkPSJNMzMuOSw0NWMwLDAuODMtMC42NywxLjUtMS41LDEuNUgxLjUgICAgICBDMC42Nyw0Ni41LDAsNDUuODMsMCw0NVYyMC45OGMwLTAuODMsMC42Ny0xLjUsMS41LTEuNWgzMC45YzAuODMsMCwxLjUsMC42NywxLjUsMS41VjQ1eiIvPiYjeGE7CQkJPC9nPiYjeGE7CQkJPGcgaWQ9InNoYXBlNDk1OS03IiB0cmFuc2Zvcm09InRyYW5zbGF0ZSg4LjY2ODIxLC0xLjc4MDI3KSI+JiN4YTsJCQkJPHRpdGxlIGlkPSJ0aXRsZTEwMDA2NyI+cGF0aDY1OTg8L3RpdGxlPiYjeGE7CQkJCTxwYXRoIGlkPSJwYXRoMTAwMDY5IiBpbmtzY2FwZTpjb25uZWN0b3ItY3VydmF0dXJlPSIwIiBzdHlsZT0iZmlsbDojRTVFNUU1OyIgZD0iTTI1LjE4LDIyLjg1VjQ2LjVMMCwyMS4zNGgyMy42NSAgICAgIEMyNC40OSwyMS4zNCwyNS4xNywyMi4wMSwyNS4xOCwyMi44NXoiLz4mI3hhOwkJCTwvZz4mI3hhOwkJCTxnIGlkPSJzaGFwZTQ5NjAtOSI+JiN4YTsJCQkJPHRpdGxlIGlkPSJ0aXRsZTEwMDA3MiI+cGF0aDY2MDA8L3RpdGxlPiYjeGE7CQkJCSYjeGE7CQkJCQk8cGF0aCBpZD0icGF0aDEwMDA3NCIgaW5rc2NhcGU6Y29ubmVjdG9yLWN1cnZhdHVyZT0iMCIgc3R5bGU9ImZpbGw6bm9uZTtzdHJva2U6IzU1NkE4QTtzdHJva2Utd2lkdGg6MS41O3N0cm9rZS1taXRlcmxpbWl0OjM7IiBkPSIgICAgICBNMzMuOSw0NWMwLDAuODMtMC42NywxLjUtMS41LDEuNUgxLjVDMC42Nyw0Ni41LDAsNDUuODMsMCw0NVYyMC45OGMwLTAuODMsMC42Ny0xLjUsMS41LTEuNWgzMC45YzAuODMsMCwxLjUsMC42NywxLjUsMS41VjQ1eiIvPiYjeGE7CQkJPC9nPiYjeGE7CQk8L2c+JiN4YTsJCTxnIGlkPSJncm91cDQ5NjEtMTEiIHRyYW5zZm9ybT0idHJhbnNsYXRlKDI5LjQ1NjIsLTEuMTEyNjcpIj4mI3hhOwkJCTx0aXRsZSBpZD0idGl0bGUxMDAwNzgiPmc2NjEwPC90aXRsZT4mI3hhOwkJCTxnIGlkPSJzaGFwZTQ5NjItMTIiPiYjeGE7CQkJCTx0aXRsZSBpZD0idGl0bGUxMDAwODAiPnBhdGg2NjA0PC90aXRsZT4mI3hhOwkJCQk8cGF0aCBpZD0icGF0aDEwMDA4MiIgaW5rc2NhcGU6Y29ubmVjdG9yLWN1cnZhdHVyZT0iMCIgc3R5bGU9ImZpbGw6I0FBRTlGQjsiIGQ9Ik0xNy41OCwzMC41YzEuOTUtNS4yNi0wLjczLTExLjEtNS45OS0xMy4wNiAgICAgIHMtMTEuMSwwLjczLTEzLjA2LDUuOTlzMC43MywxMS4xLDUuOTksMTMuMDZjMy4xNiwxLjE3LDYuNjgsMC43LDkuNDMtMS4yNXYzLjMxaDMuMjF2My43MWg0LjI0djQuMjRoNi4zNnYtNi4xOEwxNy41OCwzMC41eiIvPiYjeGE7CQkJPC9nPiYjeGE7CQkJPGcgaWQ9InNoYXBlNDk2My0xNCI+JiN4YTsJCQkJPHRpdGxlIGlkPSJ0aXRsZTEwMDA4NSI+cGF0aDY2MDY8L3RpdGxlPiYjeGE7CQkJCSYjeGE7CQkJCQk8cGF0aCBpZD0icGF0aDEwMDA4NyIgaW5rc2NhcGU6Y29ubmVjdG9yLWN1cnZhdHVyZT0iMCIgc3R5bGU9ImZpbGw6bm9uZTtzdHJva2U6IzU1NkE4QTtzdHJva2Utd2lkdGg6MS41O3N0cm9rZS1taXRlcmxpbWl0OjM7IiBkPSIgICAgICBNMTcuNTgsMzAuNWMxLjk1LTUuMjYtMC43My0xMS4xLTUuOTktMTMuMDZzLTExLjEsMC43My0xMy4wNiw1Ljk5czAuNzMsMTEuMSw1Ljk5LDEzLjA2YzMuMTYsMS4xNyw2LjY4LDAuNyw5LjQzLTEuMjV2My4zMSAgICAgIGgzLjIxdjMuNzFoNC4yNHY0LjI0aDYuMzZ2LTYuMThMMTcuNTgsMzAuNXoiLz4mI3hhOwkJCTwvZz4mI3hhOwkJCTxnIGlkPSJzaGFwZTQ5NjQtMTYiIHRyYW5zZm9ybT0idHJhbnNsYXRlKDMuMjYxNTYsLTIxLjExOTUpIj4mI3hhOwkJCQk8dGl0bGUgaWQ9InRpdGxlMTAwMDkwIj5jaXJjbGU2NjA4PC90aXRsZT4mI3hhOwkJCQkmI3hhOwkJCQkJPGNpcmNsZSBpZD0iZWxsaXBzZTEwMDA5MiIgc3R5bGU9ImZpbGw6I0ZGRkZGRjtzdHJva2U6IzU1NkE4QTtzdHJva2Utd2lkdGg6MS41O3N0cm9rZS1taXRlcmxpbWl0OjM7IiBjeD0iMi4xNSIgY3k9IjQ0LjM1IiByPSIyLjE1Ii8+JiN4YTsJCQk8L2c+JiN4YTsJCTwvZz4mI3hhOwk8L2c+JiN4YTs8L2c+JiN4YTs8L3N2Zz4=;" parent="1" vertex="1">
          <mxGeometry x="802" y="180" width="59" height="45" as="geometry" />
        </mxCell>
        <mxCell id="Fx9dtCml6bJ_47yGWjt6-14" value="Github" style="shape=image;verticalLabelPosition=bottom;labelBackgroundColor=#ffffff;verticalAlign=top;aspect=fixed;imageAspect=0;image=data:image/svg+xml,PHN2ZyB4bWxuczpjYz0iaHR0cDovL2NyZWF0aXZlY29tbW9ucy5vcmcvbnMjIiB4bWxuczpkYz0iaHR0cDovL3B1cmwub3JnL2RjL2VsZW1lbnRzLzEuMS8iIHhtbG5zOmlua3NjYXBlPSJodHRwOi8vd3d3Lmlua3NjYXBlLm9yZy9uYW1lc3BhY2VzL2lua3NjYXBlIiB4bWxuczpyZGY9Imh0dHA6Ly93d3cudzMub3JnLzE5OTkvMDIvMjItcmRmLXN5bnRheC1ucyMiIHhtbG5zOnNvZGlwb2RpPSJodHRwOi8vc29kaXBvZGkuc291cmNlZm9yZ2UubmV0L0RURC9zb2RpcG9kaS0wLmR0ZCIgeG1sbnM6c3ZnPSJodHRwOi8vd3d3LnczLm9yZy8yMDAwL3N2ZyIgeG1sbnM9Imh0dHA6Ly93d3cudzMub3JnLzIwMDAvc3ZnIiB4bWxuczp4bGluaz0iaHR0cDovL3d3dy53My5vcmcvMTk5OS94bGluayIgdmVyc2lvbj0iMS4xIiBpZD0ic3ZnNjA4MDMiIGlua3NjYXBlOnZlcnNpb249IjAuOTIuMyAoMjQwNTU0NiwgMjAxOC0wMy0xMSkiIHNvZGlwb2RpOmRvY25hbWU9ImF6dXJlX3BvcnRhbF9yZXNvdXJjZV9ncm91cHMuc3ZnIiB4PSIwcHgiIHk9IjBweCIgdmlld0JveD0iMCAwIDMwLjczIDI1LjgzIiBzdHlsZT0iZW5hYmxlLWJhY2tncm91bmQ6bmV3IDAgMCAzMC43MyAyNS44MzsiIHhtbDpzcGFjZT0icHJlc2VydmUiPiYjeGE7PHNvZGlwb2RpOm5hbWVkdmlldyBib3JkZXJjb2xvcj0iIzY2NjY2NiIgYm9yZGVyb3BhY2l0eT0iMSIgZml0LW1hcmdpbi1ib3R0b209IjAiIGZpdC1tYXJnaW4tbGVmdD0iMCIgZml0LW1hcmdpbi1yaWdodD0iMCIgZml0LW1hcmdpbi10b3A9IjAiIGdyaWR0b2xlcmFuY2U9IjEwIiBndWlkZXRvbGVyYW5jZT0iMTAiIGlkPSJuYW1lZHZpZXc2MDgwNSIgaW5rc2NhcGU6Y3VycmVudC1sYXllcj0ic3ZnNjA4MDMiIGlua3NjYXBlOmN4PSIxMi40OTE3MjQiIGlua3NjYXBlOmN5PSIxNi45Mjk2NTQiIGlua3NjYXBlOnBhZ2VvcGFjaXR5PSIwIiBpbmtzY2FwZTpwYWdlc2hhZG93PSIyIiBpbmtzY2FwZTp3aW5kb3ctaGVpZ2h0PSIxMDE3IiBpbmtzY2FwZTp3aW5kb3ctbWF4aW1pemVkPSIxIiBpbmtzY2FwZTp3aW5kb3ctd2lkdGg9IjE5MjAiIGlua3NjYXBlOndpbmRvdy14PSItOCIgaW5rc2NhcGU6d2luZG93LXk9Ii04IiBpbmtzY2FwZTp6b29tPSIxNy43OTg0MjciIG9iamVjdHRvbGVyYW5jZT0iMTAiIHBhZ2Vjb2xvcj0iI2ZmZmZmZiIgc2hvd2dyaWQ9ImZhbHNlIj4mI3hhOwk8L3NvZGlwb2RpOm5hbWVkdmlldz4mI3hhOzxnIGlkPSJnNjA4MDEiIHRyYW5zZm9ybT0idHJhbnNsYXRlKDAsLTMuNzk1ODg0NmUtNSkiPiYjeGE7CTx0aXRsZSBpZD0idGl0bGU2MDc3MSI+UGFnZS0xPC90aXRsZT4mI3hhOwk8ZyBpZD0iZ3JvdXA0MzAyLTEiPiYjeGE7CQk8dGl0bGUgaWQ9InRpdGxlNjA3NzMiPkF6dXJlIFBvcnRhbCAtIFJlc291cmNlIGdyb3VwczwvdGl0bGU+JiN4YTsJCTxnIGlkPSJzaGFwZTQzMDMtMiIgdHJhbnNmb3JtPSJ0cmFuc2xhdGUoNy41MDg3LC0xMy44NTYxKSI+JiN4YTsJCQk8dGl0bGUgaWQ9InRpdGxlNjA3NzUiPlNoZWV0LjQzMDM8L3RpdGxlPiYjeGE7CQkJPHBhdGggaWQ9InBhdGg2MDc3NyIgaW5rc2NhcGU6Y29ubmVjdG9yLWN1cnZhdHVyZT0iMCIgc3R5bGU9ImZpbGw6IzAwNzVDOTsiIGQ9Ik03LjksMjUuODNjLTAuMDQsMC0wLjA3LDAtMC4xMSwwICAgICBjLTcuNjYtNC4zNy03LjY2LTQuMzctNy42Ni00LjM3QzAuMDQsMjEuNDIsMCwyMS4zNCwwLDIxLjI1YzAtMC4wNywwLjA0LTAuMTQsMC4xMy0wLjE5YzcuNTctNC4zNCw3LjU3LTQuMzQsNy41Ny00LjM0ICAgICBjMC4wOS0wLjA1LDAuMTYtMC4wNSwwLjI1LDBjNy42NSw0LjM5LDcuNjUsNC4zOSw3LjY1LDQuMzljMC4wOSwwLjAzLDAuMTIsMC4xMSwwLjEyLDAuMTljMCwwLjA5LTAuMDMsMC4xNi0wLjEyLDAuMiAgICAgYy03LjYxLDQuMzMtNy42MSw0LjMzLTcuNjEsNC4zM0M3Ljk1LDI1LjgzLDcuOTUsMjUuODMsNy45LDI1LjgzeiIvPiYjeGE7CQk8L2c+JiN4YTsJCTxnIGlkPSJzaGFwZTQzMDQtNCIgdHJhbnNmb3JtPSJ0cmFuc2xhdGUoNi4zMzU0NywtMy4wNTMwNSkiPiYjeGE7CQkJPHRpdGxlIGlkPSJ0aXRsZTYwNzgwIj5TaGVldC40MzA0PC90aXRsZT4mI3hhOwkJCTxwYXRoIGlkPSJwYXRoNjA3ODIiIGlua3NjYXBlOmNvbm5lY3Rvci1jdXJ2YXR1cmU9IjAiIHN0eWxlPSJmaWxsOiMwMEFFRUY7IiBkPSJNNy45OCwyNS44M2MtMC4wNSwwLTAuMDktMC4wMy0wLjEzLTAuMDMgICAgIGMtNy43Mi00LjM3LTcuNzItNC4zNy03LjcyLTQuMzdDMC4wNCwyMS40LDAsMjEuMzEsMCwyMS4yNGMwLTguNzgsMC04Ljc4LDAtOC43OGMwLTAuMDksMC4wNC0wLjE2LDAuMTMtMC4yICAgICBjMC4wOC0wLjA1LDAuMTYtMC4wNSwwLjI1LDBjNy43Miw0LjM3LDcuNzIsNC4zNyw3LjcyLDQuMzdjMC4wOCwwLjAzLDAuMTEsMC4xMiwwLjExLDAuMTljMCw4Ljc4LDAsOC43OCwwLDguNzggICAgIGMwLDAuMDktMC4wMywwLjE2LTAuMTEsMC4yQzguMDUsMjUuOCw4LjAyLDI1LjgzLDcuOTgsMjUuODN6Ii8+JiN4YTsJCTwvZz4mI3hhOwkJPGcgaWQ9InNoYXBlNDMwNS02IiB0cmFuc2Zvcm09InRyYW5zbGF0ZSgxNi4xOTA2LC0zLjA1MzA1KSI+JiN4YTsJCQk8dGl0bGUgaWQ9InRpdGxlNjA3ODUiPlNoZWV0LjQzMDU8L3RpdGxlPiYjeGE7CQkJPHBhdGggaWQ9InBhdGg2MDc4NyIgaW5rc2NhcGU6Y29ubmVjdG9yLWN1cnZhdHVyZT0iMCIgc3R5bGU9ImZpbGw6IzJCQUFFMTsiIGQ9Ik0wLjI1LDI1LjgzYy0wLjA0LDAtMC4wNy0wLjAzLTAuMTItMC4wMyAgICAgQzAuMDQsMjUuNzYsMCwyNS42OSwwLDI1LjZjMC04Ljc2LDAtOC43NiwwLTguNzZjMC0wLjA4LDAuMDQtMC4xNywwLjEzLTAuMmM3LjcyLTQuMzgsNy43Mi00LjM4LDcuNzItNC4zOCAgICAgYzAuMDgtMC4wNSwwLjE3LTAuMDUsMC4yNSwwYzAuMDQsMC4wNCwwLjExLDAuMTEsMC4xMSwwLjJjMCw4Ljc2LDAsOC43NiwwLDguNzZjMCwwLjA4LTAuMDcsMC4xNy0wLjExLDAuMiAgICAgQzAuMzgsMjUuOCwwLjM4LDI1LjgsMC4zOCwyNS44QzAuMzQsMjUuOCwwLjI5LDI1LjgzLDAuMjUsMjUuODN6Ii8+JiN4YTsJCTwvZz4mI3hhOwkJPGcgaWQ9InNoYXBlNDMwNi04IiB0cmFuc2Zvcm09InRyYW5zbGF0ZSgyMy40NjQ3KSI+JiN4YTsJCQk8dGl0bGUgaWQ9InRpdGxlNjA3OTAiPlNoZWV0LjQzMDY8L3RpdGxlPiYjeGE7CQkJPHBhdGggaWQ9InBhdGg2MDc5MiIgaW5rc2NhcGU6Y29ubmVjdG9yLWN1cnZhdHVyZT0iMCIgc3R5bGU9ImZpbGw6IzkzOTU5ODsiIGQ9Ik00LjQ3LDBDMCwwLDAsMCwwLDBjMCwxLjI2LDAsMS4yNiwwLDEuMjYgICAgIGM0LjQ3LDAsNC40NywwLDQuNDcsMGMwLjg3LDAsMS41OSwwLjcyLDEuNTksMS41N2MwLDIwLjE5LDAsMjAuMTksMCwyMC4xOWMwLDAuODgtMC43MiwxLjU3LTEuNTksMS41N2MtNC40NywwLTQuNDcsMC00LjQ3LDAgICAgIGMwLDEuMjQsMCwxLjI0LDAsMS4yNGM0LjQ3LDAsNC40NywwLDQuNDcsMGMxLjU0LDAsMi44LTEuMjQsMi44LTIuODFjMC0yMC4xOSwwLTIwLjE5LDAtMjAuMTlDNy4yNywxLjMxLDYuMDEsMCw0LjQ3LDB6Ii8+JiN4YTsJCTwvZz4mI3hhOwkJPGcgaWQ9InNoYXBlNDMwNy0xMCI+JiN4YTsJCQk8dGl0bGUgaWQ9InRpdGxlNjA3OTUiPlNoZWV0LjQzMDc8L3RpdGxlPiYjeGE7CQkJPHBhdGggaWQ9InBhdGg2MDc5NyIgaW5rc2NhcGU6Y29ubmVjdG9yLWN1cnZhdHVyZT0iMCIgc3R5bGU9ImZpbGw6IzkzOTU5ODsiIGQ9Ik0yLjgyLDI0LjU5Yy0wLjg3LDAtMS41OS0wLjY5LTEuNTktMS41NyAgICAgYzAtMjAuMTksMC0yMC4xOSwwLTIwLjE5YzAtMC44NSwwLjcyLTEuNTcsMS41OS0xLjU3YzQuNDUsMCw0LjQ1LDAsNC40NSwwYzAtMS4yNiwwLTEuMjYsMC0xLjI2QzIuODIsMCwyLjgyLDAsMi44MiwwICAgICBDMS4yOCwwLDAsMS4zMSwwLDIuODNjMCwyMC4xOSwwLDIwLjE5LDAsMjAuMTljMCwxLjU3LDEuMjgsMi44MSwyLjgyLDIuODFjNC40NSwwLDQuNDUsMCw0LjQ1LDBjMC0xLjI0LDAtMS4yNCwwLTEuMjRIMi44MnoiLz4mI3hhOwkJPC9nPiYjeGE7CTwvZz4mI3hhOzwvZz4mI3hhOzwvc3ZnPg==;" parent="1" vertex="1">
          <mxGeometry x="940" y="80" width="95.39" height="80" as="geometry" />
        </mxCell>
        <mxCell id="Fx9dtCml6bJ_47yGWjt6-15" value="Google" style="shape=image;verticalLabelPosition=bottom;labelBackgroundColor=#ffffff;verticalAlign=top;aspect=fixed;imageAspect=0;image=data:image/svg+xml,PHN2ZyB4bWxuczpjYz0iaHR0cDovL2NyZWF0aXZlY29tbW9ucy5vcmcvbnMjIiB4bWxuczpkYz0iaHR0cDovL3B1cmwub3JnL2RjL2VsZW1lbnRzLzEuMS8iIHhtbG5zOmlua3NjYXBlPSJodHRwOi8vd3d3Lmlua3NjYXBlLm9yZy9uYW1lc3BhY2VzL2lua3NjYXBlIiB4bWxuczpyZGY9Imh0dHA6Ly93d3cudzMub3JnLzE5OTkvMDIvMjItcmRmLXN5bnRheC1ucyMiIHhtbG5zOnNvZGlwb2RpPSJodHRwOi8vc29kaXBvZGkuc291cmNlZm9yZ2UubmV0L0RURC9zb2RpcG9kaS0wLmR0ZCIgeG1sbnM6c3ZnPSJodHRwOi8vd3d3LnczLm9yZy8yMDAwL3N2ZyIgeG1sbnM9Imh0dHA6Ly93d3cudzMub3JnLzIwMDAvc3ZnIiB4bWxuczp4bGluaz0iaHR0cDovL3d3dy53My5vcmcvMTk5OS94bGluayIgdmVyc2lvbj0iMS4xIiBpZD0ic3ZnNjA4MDMiIGlua3NjYXBlOnZlcnNpb249IjAuOTIuMyAoMjQwNTU0NiwgMjAxOC0wMy0xMSkiIHNvZGlwb2RpOmRvY25hbWU9ImF6dXJlX3BvcnRhbF9yZXNvdXJjZV9ncm91cHMuc3ZnIiB4PSIwcHgiIHk9IjBweCIgdmlld0JveD0iMCAwIDMwLjczIDI1LjgzIiBzdHlsZT0iZW5hYmxlLWJhY2tncm91bmQ6bmV3IDAgMCAzMC43MyAyNS44MzsiIHhtbDpzcGFjZT0icHJlc2VydmUiPiYjeGE7PHNvZGlwb2RpOm5hbWVkdmlldyBib3JkZXJjb2xvcj0iIzY2NjY2NiIgYm9yZGVyb3BhY2l0eT0iMSIgZml0LW1hcmdpbi1ib3R0b209IjAiIGZpdC1tYXJnaW4tbGVmdD0iMCIgZml0LW1hcmdpbi1yaWdodD0iMCIgZml0LW1hcmdpbi10b3A9IjAiIGdyaWR0b2xlcmFuY2U9IjEwIiBndWlkZXRvbGVyYW5jZT0iMTAiIGlkPSJuYW1lZHZpZXc2MDgwNSIgaW5rc2NhcGU6Y3VycmVudC1sYXllcj0ic3ZnNjA4MDMiIGlua3NjYXBlOmN4PSIxMi40OTE3MjQiIGlua3NjYXBlOmN5PSIxNi45Mjk2NTQiIGlua3NjYXBlOnBhZ2VvcGFjaXR5PSIwIiBpbmtzY2FwZTpwYWdlc2hhZG93PSIyIiBpbmtzY2FwZTp3aW5kb3ctaGVpZ2h0PSIxMDE3IiBpbmtzY2FwZTp3aW5kb3ctbWF4aW1pemVkPSIxIiBpbmtzY2FwZTp3aW5kb3ctd2lkdGg9IjE5MjAiIGlua3NjYXBlOndpbmRvdy14PSItOCIgaW5rc2NhcGU6d2luZG93LXk9Ii04IiBpbmtzY2FwZTp6b29tPSIxNy43OTg0MjciIG9iamVjdHRvbGVyYW5jZT0iMTAiIHBhZ2Vjb2xvcj0iI2ZmZmZmZiIgc2hvd2dyaWQ9ImZhbHNlIj4mI3hhOwk8L3NvZGlwb2RpOm5hbWVkdmlldz4mI3hhOzxnIGlkPSJnNjA4MDEiIHRyYW5zZm9ybT0idHJhbnNsYXRlKDAsLTMuNzk1ODg0NmUtNSkiPiYjeGE7CTx0aXRsZSBpZD0idGl0bGU2MDc3MSI+UGFnZS0xPC90aXRsZT4mI3hhOwk8ZyBpZD0iZ3JvdXA0MzAyLTEiPiYjeGE7CQk8dGl0bGUgaWQ9InRpdGxlNjA3NzMiPkF6dXJlIFBvcnRhbCAtIFJlc291cmNlIGdyb3VwczwvdGl0bGU+JiN4YTsJCTxnIGlkPSJzaGFwZTQzMDMtMiIgdHJhbnNmb3JtPSJ0cmFuc2xhdGUoNy41MDg3LC0xMy44NTYxKSI+JiN4YTsJCQk8dGl0bGUgaWQ9InRpdGxlNjA3NzUiPlNoZWV0LjQzMDM8L3RpdGxlPiYjeGE7CQkJPHBhdGggaWQ9InBhdGg2MDc3NyIgaW5rc2NhcGU6Y29ubmVjdG9yLWN1cnZhdHVyZT0iMCIgc3R5bGU9ImZpbGw6IzAwNzVDOTsiIGQ9Ik03LjksMjUuODNjLTAuMDQsMC0wLjA3LDAtMC4xMSwwICAgICBjLTcuNjYtNC4zNy03LjY2LTQuMzctNy42Ni00LjM3QzAuMDQsMjEuNDIsMCwyMS4zNCwwLDIxLjI1YzAtMC4wNywwLjA0LTAuMTQsMC4xMy0wLjE5YzcuNTctNC4zNCw3LjU3LTQuMzQsNy41Ny00LjM0ICAgICBjMC4wOS0wLjA1LDAuMTYtMC4wNSwwLjI1LDBjNy42NSw0LjM5LDcuNjUsNC4zOSw3LjY1LDQuMzljMC4wOSwwLjAzLDAuMTIsMC4xMSwwLjEyLDAuMTljMCwwLjA5LTAuMDMsMC4xNi0wLjEyLDAuMiAgICAgYy03LjYxLDQuMzMtNy42MSw0LjMzLTcuNjEsNC4zM0M3Ljk1LDI1LjgzLDcuOTUsMjUuODMsNy45LDI1LjgzeiIvPiYjeGE7CQk8L2c+JiN4YTsJCTxnIGlkPSJzaGFwZTQzMDQtNCIgdHJhbnNmb3JtPSJ0cmFuc2xhdGUoNi4zMzU0NywtMy4wNTMwNSkiPiYjeGE7CQkJPHRpdGxlIGlkPSJ0aXRsZTYwNzgwIj5TaGVldC40MzA0PC90aXRsZT4mI3hhOwkJCTxwYXRoIGlkPSJwYXRoNjA3ODIiIGlua3NjYXBlOmNvbm5lY3Rvci1jdXJ2YXR1cmU9IjAiIHN0eWxlPSJmaWxsOiMwMEFFRUY7IiBkPSJNNy45OCwyNS44M2MtMC4wNSwwLTAuMDktMC4wMy0wLjEzLTAuMDMgICAgIGMtNy43Mi00LjM3LTcuNzItNC4zNy03LjcyLTQuMzdDMC4wNCwyMS40LDAsMjEuMzEsMCwyMS4yNGMwLTguNzgsMC04Ljc4LDAtOC43OGMwLTAuMDksMC4wNC0wLjE2LDAuMTMtMC4yICAgICBjMC4wOC0wLjA1LDAuMTYtMC4wNSwwLjI1LDBjNy43Miw0LjM3LDcuNzIsNC4zNyw3LjcyLDQuMzdjMC4wOCwwLjAzLDAuMTEsMC4xMiwwLjExLDAuMTljMCw4Ljc4LDAsOC43OCwwLDguNzggICAgIGMwLDAuMDktMC4wMywwLjE2LTAuMTEsMC4yQzguMDUsMjUuOCw4LjAyLDI1LjgzLDcuOTgsMjUuODN6Ii8+JiN4YTsJCTwvZz4mI3hhOwkJPGcgaWQ9InNoYXBlNDMwNS02IiB0cmFuc2Zvcm09InRyYW5zbGF0ZSgxNi4xOTA2LC0zLjA1MzA1KSI+JiN4YTsJCQk8dGl0bGUgaWQ9InRpdGxlNjA3ODUiPlNoZWV0LjQzMDU8L3RpdGxlPiYjeGE7CQkJPHBhdGggaWQ9InBhdGg2MDc4NyIgaW5rc2NhcGU6Y29ubmVjdG9yLWN1cnZhdHVyZT0iMCIgc3R5bGU9ImZpbGw6IzJCQUFFMTsiIGQ9Ik0wLjI1LDI1LjgzYy0wLjA0LDAtMC4wNy0wLjAzLTAuMTItMC4wMyAgICAgQzAuMDQsMjUuNzYsMCwyNS42OSwwLDI1LjZjMC04Ljc2LDAtOC43NiwwLTguNzZjMC0wLjA4LDAuMDQtMC4xNywwLjEzLTAuMmM3LjcyLTQuMzgsNy43Mi00LjM4LDcuNzItNC4zOCAgICAgYzAuMDgtMC4wNSwwLjE3LTAuMDUsMC4yNSwwYzAuMDQsMC4wNCwwLjExLDAuMTEsMC4xMSwwLjJjMCw4Ljc2LDAsOC43NiwwLDguNzZjMCwwLjA4LTAuMDcsMC4xNy0wLjExLDAuMiAgICAgQzAuMzgsMjUuOCwwLjM4LDI1LjgsMC4zOCwyNS44QzAuMzQsMjUuOCwwLjI5LDI1LjgzLDAuMjUsMjUuODN6Ii8+JiN4YTsJCTwvZz4mI3hhOwkJPGcgaWQ9InNoYXBlNDMwNi04IiB0cmFuc2Zvcm09InRyYW5zbGF0ZSgyMy40NjQ3KSI+JiN4YTsJCQk8dGl0bGUgaWQ9InRpdGxlNjA3OTAiPlNoZWV0LjQzMDY8L3RpdGxlPiYjeGE7CQkJPHBhdGggaWQ9InBhdGg2MDc5MiIgaW5rc2NhcGU6Y29ubmVjdG9yLWN1cnZhdHVyZT0iMCIgc3R5bGU9ImZpbGw6IzkzOTU5ODsiIGQ9Ik00LjQ3LDBDMCwwLDAsMCwwLDBjMCwxLjI2LDAsMS4yNiwwLDEuMjYgICAgIGM0LjQ3LDAsNC40NywwLDQuNDcsMGMwLjg3LDAsMS41OSwwLjcyLDEuNTksMS41N2MwLDIwLjE5LDAsMjAuMTksMCwyMC4xOWMwLDAuODgtMC43MiwxLjU3LTEuNTksMS41N2MtNC40NywwLTQuNDcsMC00LjQ3LDAgICAgIGMwLDEuMjQsMCwxLjI0LDAsMS4yNGM0LjQ3LDAsNC40NywwLDQuNDcsMGMxLjU0LDAsMi44LTEuMjQsMi44LTIuODFjMC0yMC4xOSwwLTIwLjE5LDAtMjAuMTlDNy4yNywxLjMxLDYuMDEsMCw0LjQ3LDB6Ii8+JiN4YTsJCTwvZz4mI3hhOwkJPGcgaWQ9InNoYXBlNDMwNy0xMCI+JiN4YTsJCQk8dGl0bGUgaWQ9InRpdGxlNjA3OTUiPlNoZWV0LjQzMDc8L3RpdGxlPiYjeGE7CQkJPHBhdGggaWQ9InBhdGg2MDc5NyIgaW5rc2NhcGU6Y29ubmVjdG9yLWN1cnZhdHVyZT0iMCIgc3R5bGU9ImZpbGw6IzkzOTU5ODsiIGQ9Ik0yLjgyLDI0LjU5Yy0wLjg3LDAtMS41OS0wLjY5LTEuNTktMS41NyAgICAgYzAtMjAuMTksMC0yMC4xOSwwLTIwLjE5YzAtMC44NSwwLjcyLTEuNTcsMS41OS0xLjU3YzQuNDUsMCw0LjQ1LDAsNC40NSwwYzAtMS4yNiwwLTEuMjYsMC0xLjI2QzIuODIsMCwyLjgyLDAsMi44MiwwICAgICBDMS4yOCwwLDAsMS4zMSwwLDIuODNjMCwyMC4xOSwwLDIwLjE5LDAsMjAuMTljMCwxLjU3LDEuMjgsMi44MSwyLjgyLDIuODFjNC40NSwwLDQuNDUsMCw0LjQ1LDBjMC0xLjI0LDAtMS4yNCwwLTEuMjRIMi44MnoiLz4mI3hhOwkJPC9nPiYjeGE7CTwvZz4mI3hhOzwvZz4mI3hhOzwvc3ZnPg==;" parent="1" vertex="1">
          <mxGeometry x="940" y="180" width="95.39" height="80" as="geometry" />
        </mxCell>
        <mxCell id="Fx9dtCml6bJ_47yGWjt6-26" value="APIs" style="shape=image;verticalLabelPosition=bottom;labelBackgroundColor=#ffffff;verticalAlign=top;aspect=fixed;imageAspect=0;image=data:image/svg+xml,PHN2ZyB4bWxuczpjYz0iaHR0cDovL2NyZWF0aXZlY29tbW9ucy5vcmcvbnMjIiB4bWxuczpkYz0iaHR0cDovL3B1cmwub3JnL2RjL2VsZW1lbnRzLzEuMS8iIHhtbG5zOmlua3NjYXBlPSJodHRwOi8vd3d3Lmlua3NjYXBlLm9yZy9uYW1lc3BhY2VzL2lua3NjYXBlIiB4bWxuczpyZGY9Imh0dHA6Ly93d3cudzMub3JnLzE5OTkvMDIvMjItcmRmLXN5bnRheC1ucyMiIHhtbG5zOnNvZGlwb2RpPSJodHRwOi8vc29kaXBvZGkuc291cmNlZm9yZ2UubmV0L0RURC9zb2RpcG9kaS0wLmR0ZCIgeG1sbnM6c3ZnPSJodHRwOi8vd3d3LnczLm9yZy8yMDAwL3N2ZyIgeG1sbnM9Imh0dHA6Ly93d3cudzMub3JnLzIwMDAvc3ZnIiB4bWxuczp4bGluaz0iaHR0cDovL3d3dy53My5vcmcvMTk5OS94bGluayIgdmVyc2lvbj0iMS4xIiBpZD0ic3ZnNjA4MDMiIGlua3NjYXBlOnZlcnNpb249IjAuOTIuMyAoMjQwNTU0NiwgMjAxOC0wMy0xMSkiIHNvZGlwb2RpOmRvY25hbWU9ImF6dXJlX3BvcnRhbF9yZXNvdXJjZV9ncm91cHMuc3ZnIiB4PSIwcHgiIHk9IjBweCIgdmlld0JveD0iMCAwIDMwLjczIDI1LjgzIiBzdHlsZT0iZW5hYmxlLWJhY2tncm91bmQ6bmV3IDAgMCAzMC43MyAyNS44MzsiIHhtbDpzcGFjZT0icHJlc2VydmUiPiYjeGE7PHNvZGlwb2RpOm5hbWVkdmlldyBib3JkZXJjb2xvcj0iIzY2NjY2NiIgYm9yZGVyb3BhY2l0eT0iMSIgZml0LW1hcmdpbi1ib3R0b209IjAiIGZpdC1tYXJnaW4tbGVmdD0iMCIgZml0LW1hcmdpbi1yaWdodD0iMCIgZml0LW1hcmdpbi10b3A9IjAiIGdyaWR0b2xlcmFuY2U9IjEwIiBndWlkZXRvbGVyYW5jZT0iMTAiIGlkPSJuYW1lZHZpZXc2MDgwNSIgaW5rc2NhcGU6Y3VycmVudC1sYXllcj0ic3ZnNjA4MDMiIGlua3NjYXBlOmN4PSIxMi40OTE3MjQiIGlua3NjYXBlOmN5PSIxNi45Mjk2NTQiIGlua3NjYXBlOnBhZ2VvcGFjaXR5PSIwIiBpbmtzY2FwZTpwYWdlc2hhZG93PSIyIiBpbmtzY2FwZTp3aW5kb3ctaGVpZ2h0PSIxMDE3IiBpbmtzY2FwZTp3aW5kb3ctbWF4aW1pemVkPSIxIiBpbmtzY2FwZTp3aW5kb3ctd2lkdGg9IjE5MjAiIGlua3NjYXBlOndpbmRvdy14PSItOCIgaW5rc2NhcGU6d2luZG93LXk9Ii04IiBpbmtzY2FwZTp6b29tPSIxNy43OTg0MjciIG9iamVjdHRvbGVyYW5jZT0iMTAiIHBhZ2Vjb2xvcj0iI2ZmZmZmZiIgc2hvd2dyaWQ9ImZhbHNlIj4mI3hhOwk8L3NvZGlwb2RpOm5hbWVkdmlldz4mI3hhOzxnIGlkPSJnNjA4MDEiIHRyYW5zZm9ybT0idHJhbnNsYXRlKDAsLTMuNzk1ODg0NmUtNSkiPiYjeGE7CTx0aXRsZSBpZD0idGl0bGU2MDc3MSI+UGFnZS0xPC90aXRsZT4mI3hhOwk8ZyBpZD0iZ3JvdXA0MzAyLTEiPiYjeGE7CQk8dGl0bGUgaWQ9InRpdGxlNjA3NzMiPkF6dXJlIFBvcnRhbCAtIFJlc291cmNlIGdyb3VwczwvdGl0bGU+JiN4YTsJCTxnIGlkPSJzaGFwZTQzMDMtMiIgdHJhbnNmb3JtPSJ0cmFuc2xhdGUoNy41MDg3LC0xMy44NTYxKSI+JiN4YTsJCQk8dGl0bGUgaWQ9InRpdGxlNjA3NzUiPlNoZWV0LjQzMDM8L3RpdGxlPiYjeGE7CQkJPHBhdGggaWQ9InBhdGg2MDc3NyIgaW5rc2NhcGU6Y29ubmVjdG9yLWN1cnZhdHVyZT0iMCIgc3R5bGU9ImZpbGw6IzAwNzVDOTsiIGQ9Ik03LjksMjUuODNjLTAuMDQsMC0wLjA3LDAtMC4xMSwwICAgICBjLTcuNjYtNC4zNy03LjY2LTQuMzctNy42Ni00LjM3QzAuMDQsMjEuNDIsMCwyMS4zNCwwLDIxLjI1YzAtMC4wNywwLjA0LTAuMTQsMC4xMy0wLjE5YzcuNTctNC4zNCw3LjU3LTQuMzQsNy41Ny00LjM0ICAgICBjMC4wOS0wLjA1LDAuMTYtMC4wNSwwLjI1LDBjNy42NSw0LjM5LDcuNjUsNC4zOSw3LjY1LDQuMzljMC4wOSwwLjAzLDAuMTIsMC4xMSwwLjEyLDAuMTljMCwwLjA5LTAuMDMsMC4xNi0wLjEyLDAuMiAgICAgYy03LjYxLDQuMzMtNy42MSw0LjMzLTcuNjEsNC4zM0M3Ljk1LDI1LjgzLDcuOTUsMjUuODMsNy45LDI1LjgzeiIvPiYjeGE7CQk8L2c+JiN4YTsJCTxnIGlkPSJzaGFwZTQzMDQtNCIgdHJhbnNmb3JtPSJ0cmFuc2xhdGUoNi4zMzU0NywtMy4wNTMwNSkiPiYjeGE7CQkJPHRpdGxlIGlkPSJ0aXRsZTYwNzgwIj5TaGVldC40MzA0PC90aXRsZT4mI3hhOwkJCTxwYXRoIGlkPSJwYXRoNjA3ODIiIGlua3NjYXBlOmNvbm5lY3Rvci1jdXJ2YXR1cmU9IjAiIHN0eWxlPSJmaWxsOiMwMEFFRUY7IiBkPSJNNy45OCwyNS44M2MtMC4wNSwwLTAuMDktMC4wMy0wLjEzLTAuMDMgICAgIGMtNy43Mi00LjM3LTcuNzItNC4zNy03LjcyLTQuMzdDMC4wNCwyMS40LDAsMjEuMzEsMCwyMS4yNGMwLTguNzgsMC04Ljc4LDAtOC43OGMwLTAuMDksMC4wNC0wLjE2LDAuMTMtMC4yICAgICBjMC4wOC0wLjA1LDAuMTYtMC4wNSwwLjI1LDBjNy43Miw0LjM3LDcuNzIsNC4zNyw3LjcyLDQuMzdjMC4wOCwwLjAzLDAuMTEsMC4xMiwwLjExLDAuMTljMCw4Ljc4LDAsOC43OCwwLDguNzggICAgIGMwLDAuMDktMC4wMywwLjE2LTAuMTEsMC4yQzguMDUsMjUuOCw4LjAyLDI1LjgzLDcuOTgsMjUuODN6Ii8+JiN4YTsJCTwvZz4mI3hhOwkJPGcgaWQ9InNoYXBlNDMwNS02IiB0cmFuc2Zvcm09InRyYW5zbGF0ZSgxNi4xOTA2LC0zLjA1MzA1KSI+JiN4YTsJCQk8dGl0bGUgaWQ9InRpdGxlNjA3ODUiPlNoZWV0LjQzMDU8L3RpdGxlPiYjeGE7CQkJPHBhdGggaWQ9InBhdGg2MDc4NyIgaW5rc2NhcGU6Y29ubmVjdG9yLWN1cnZhdHVyZT0iMCIgc3R5bGU9ImZpbGw6IzJCQUFFMTsiIGQ9Ik0wLjI1LDI1LjgzYy0wLjA0LDAtMC4wNy0wLjAzLTAuMTItMC4wMyAgICAgQzAuMDQsMjUuNzYsMCwyNS42OSwwLDI1LjZjMC04Ljc2LDAtOC43NiwwLTguNzZjMC0wLjA4LDAuMDQtMC4xNywwLjEzLTAuMmM3LjcyLTQuMzgsNy43Mi00LjM4LDcuNzItNC4zOCAgICAgYzAuMDgtMC4wNSwwLjE3LTAuMDUsMC4yNSwwYzAuMDQsMC4wNCwwLjExLDAuMTEsMC4xMSwwLjJjMCw4Ljc2LDAsOC43NiwwLDguNzZjMCwwLjA4LTAuMDcsMC4xNy0wLjExLDAuMiAgICAgQzAuMzgsMjUuOCwwLjM4LDI1LjgsMC4zOCwyNS44QzAuMzQsMjUuOCwwLjI5LDI1LjgzLDAuMjUsMjUuODN6Ii8+JiN4YTsJCTwvZz4mI3hhOwkJPGcgaWQ9InNoYXBlNDMwNi04IiB0cmFuc2Zvcm09InRyYW5zbGF0ZSgyMy40NjQ3KSI+JiN4YTsJCQk8dGl0bGUgaWQ9InRpdGxlNjA3OTAiPlNoZWV0LjQzMDY8L3RpdGxlPiYjeGE7CQkJPHBhdGggaWQ9InBhdGg2MDc5MiIgaW5rc2NhcGU6Y29ubmVjdG9yLWN1cnZhdHVyZT0iMCIgc3R5bGU9ImZpbGw6IzkzOTU5ODsiIGQ9Ik00LjQ3LDBDMCwwLDAsMCwwLDBjMCwxLjI2LDAsMS4yNiwwLDEuMjYgICAgIGM0LjQ3LDAsNC40NywwLDQuNDcsMGMwLjg3LDAsMS41OSwwLjcyLDEuNTksMS41N2MwLDIwLjE5LDAsMjAuMTksMCwyMC4xOWMwLDAuODgtMC43MiwxLjU3LTEuNTksMS41N2MtNC40NywwLTQuNDcsMC00LjQ3LDAgICAgIGMwLDEuMjQsMCwxLjI0LDAsMS4yNGM0LjQ3LDAsNC40NywwLDQuNDcsMGMxLjU0LDAsMi44LTEuMjQsMi44LTIuODFjMC0yMC4xOSwwLTIwLjE5LDAtMjAuMTlDNy4yNywxLjMxLDYuMDEsMCw0LjQ3LDB6Ii8+JiN4YTsJCTwvZz4mI3hhOwkJPGcgaWQ9InNoYXBlNDMwNy0xMCI+JiN4YTsJCQk8dGl0bGUgaWQ9InRpdGxlNjA3OTUiPlNoZWV0LjQzMDc8L3RpdGxlPiYjeGE7CQkJPHBhdGggaWQ9InBhdGg2MDc5NyIgaW5rc2NhcGU6Y29ubmVjdG9yLWN1cnZhdHVyZT0iMCIgc3R5bGU9ImZpbGw6IzkzOTU5ODsiIGQ9Ik0yLjgyLDI0LjU5Yy0wLjg3LDAtMS41OS0wLjY5LTEuNTktMS41NyAgICAgYzAtMjAuMTksMC0yMC4xOSwwLTIwLjE5YzAtMC44NSwwLjcyLTEuNTcsMS41OS0xLjU3YzQuNDUsMCw0LjQ1LDAsNC40NSwwYzAtMS4yNiwwLTEuMjYsMC0xLjI2QzIuODIsMCwyLjgyLDAsMi44MiwwICAgICBDMS4yOCwwLDAsMS4zMSwwLDIuODNjMCwyMC4xOSwwLDIwLjE5LDAsMjAuMTljMCwxLjU3LDEuMjgsMi44MSwyLjgyLDIuODFjNC40NSwwLDQuNDUsMCw0LjQ1LDBjMC0xLjI0LDAtMS4yNCwwLTEuMjRIMi44MnoiLz4mI3hhOwkJPC9nPiYjeGE7CTwvZz4mI3hhOzwvZz4mI3hhOzwvc3ZnPg==;" parent="1" vertex="1">
          <mxGeometry x="770" y="414" width="90" height="75.48" as="geometry" />
        </mxCell>
        <mxCell id="Fx9dtCml6bJ_47yGWjt6-27" value="APIs" style="shape=image;verticalLabelPosition=bottom;labelBackgroundColor=#ffffff;verticalAlign=top;aspect=fixed;imageAspect=0;image=data:image/svg+xml,PHN2ZyB4bWxuczpjYz0iaHR0cDovL2NyZWF0aXZlY29tbW9ucy5vcmcvbnMjIiB4bWxuczpkYz0iaHR0cDovL3B1cmwub3JnL2RjL2VsZW1lbnRzLzEuMS8iIHhtbG5zOmlua3NjYXBlPSJodHRwOi8vd3d3Lmlua3NjYXBlLm9yZy9uYW1lc3BhY2VzL2lua3NjYXBlIiB4bWxuczpyZGY9Imh0dHA6Ly93d3cudzMub3JnLzE5OTkvMDIvMjItcmRmLXN5bnRheC1ucyMiIHhtbG5zOnNvZGlwb2RpPSJodHRwOi8vc29kaXBvZGkuc291cmNlZm9yZ2UubmV0L0RURC9zb2RpcG9kaS0wLmR0ZCIgeG1sbnM6c3ZnPSJodHRwOi8vd3d3LnczLm9yZy8yMDAwL3N2ZyIgeG1sbnM9Imh0dHA6Ly93d3cudzMub3JnLzIwMDAvc3ZnIiB4bWxuczp4bGluaz0iaHR0cDovL3d3dy53My5vcmcvMTk5OS94bGluayIgdmVyc2lvbj0iMS4xIiBpZD0ic3ZnNjA4MDMiIGlua3NjYXBlOnZlcnNpb249IjAuOTIuMyAoMjQwNTU0NiwgMjAxOC0wMy0xMSkiIHNvZGlwb2RpOmRvY25hbWU9ImF6dXJlX3BvcnRhbF9yZXNvdXJjZV9ncm91cHMuc3ZnIiB4PSIwcHgiIHk9IjBweCIgdmlld0JveD0iMCAwIDMwLjczIDI1LjgzIiBzdHlsZT0iZW5hYmxlLWJhY2tncm91bmQ6bmV3IDAgMCAzMC43MyAyNS44MzsiIHhtbDpzcGFjZT0icHJlc2VydmUiPiYjeGE7PHNvZGlwb2RpOm5hbWVkdmlldyBib3JkZXJjb2xvcj0iIzY2NjY2NiIgYm9yZGVyb3BhY2l0eT0iMSIgZml0LW1hcmdpbi1ib3R0b209IjAiIGZpdC1tYXJnaW4tbGVmdD0iMCIgZml0LW1hcmdpbi1yaWdodD0iMCIgZml0LW1hcmdpbi10b3A9IjAiIGdyaWR0b2xlcmFuY2U9IjEwIiBndWlkZXRvbGVyYW5jZT0iMTAiIGlkPSJuYW1lZHZpZXc2MDgwNSIgaW5rc2NhcGU6Y3VycmVudC1sYXllcj0ic3ZnNjA4MDMiIGlua3NjYXBlOmN4PSIxMi40OTE3MjQiIGlua3NjYXBlOmN5PSIxNi45Mjk2NTQiIGlua3NjYXBlOnBhZ2VvcGFjaXR5PSIwIiBpbmtzY2FwZTpwYWdlc2hhZG93PSIyIiBpbmtzY2FwZTp3aW5kb3ctaGVpZ2h0PSIxMDE3IiBpbmtzY2FwZTp3aW5kb3ctbWF4aW1pemVkPSIxIiBpbmtzY2FwZTp3aW5kb3ctd2lkdGg9IjE5MjAiIGlua3NjYXBlOndpbmRvdy14PSItOCIgaW5rc2NhcGU6d2luZG93LXk9Ii04IiBpbmtzY2FwZTp6b29tPSIxNy43OTg0MjciIG9iamVjdHRvbGVyYW5jZT0iMTAiIHBhZ2Vjb2xvcj0iI2ZmZmZmZiIgc2hvd2dyaWQ9ImZhbHNlIj4mI3hhOwk8L3NvZGlwb2RpOm5hbWVkdmlldz4mI3hhOzxnIGlkPSJnNjA4MDEiIHRyYW5zZm9ybT0idHJhbnNsYXRlKDAsLTMuNzk1ODg0NmUtNSkiPiYjeGE7CTx0aXRsZSBpZD0idGl0bGU2MDc3MSI+UGFnZS0xPC90aXRsZT4mI3hhOwk8ZyBpZD0iZ3JvdXA0MzAyLTEiPiYjeGE7CQk8dGl0bGUgaWQ9InRpdGxlNjA3NzMiPkF6dXJlIFBvcnRhbCAtIFJlc291cmNlIGdyb3VwczwvdGl0bGU+JiN4YTsJCTxnIGlkPSJzaGFwZTQzMDMtMiIgdHJhbnNmb3JtPSJ0cmFuc2xhdGUoNy41MDg3LC0xMy44NTYxKSI+JiN4YTsJCQk8dGl0bGUgaWQ9InRpdGxlNjA3NzUiPlNoZWV0LjQzMDM8L3RpdGxlPiYjeGE7CQkJPHBhdGggaWQ9InBhdGg2MDc3NyIgaW5rc2NhcGU6Y29ubmVjdG9yLWN1cnZhdHVyZT0iMCIgc3R5bGU9ImZpbGw6IzAwNzVDOTsiIGQ9Ik03LjksMjUuODNjLTAuMDQsMC0wLjA3LDAtMC4xMSwwICAgICBjLTcuNjYtNC4zNy03LjY2LTQuMzctNy42Ni00LjM3QzAuMDQsMjEuNDIsMCwyMS4zNCwwLDIxLjI1YzAtMC4wNywwLjA0LTAuMTQsMC4xMy0wLjE5YzcuNTctNC4zNCw3LjU3LTQuMzQsNy41Ny00LjM0ICAgICBjMC4wOS0wLjA1LDAuMTYtMC4wNSwwLjI1LDBjNy42NSw0LjM5LDcuNjUsNC4zOSw3LjY1LDQuMzljMC4wOSwwLjAzLDAuMTIsMC4xMSwwLjEyLDAuMTljMCwwLjA5LTAuMDMsMC4xNi0wLjEyLDAuMiAgICAgYy03LjYxLDQuMzMtNy42MSw0LjMzLTcuNjEsNC4zM0M3Ljk1LDI1LjgzLDcuOTUsMjUuODMsNy45LDI1LjgzeiIvPiYjeGE7CQk8L2c+JiN4YTsJCTxnIGlkPSJzaGFwZTQzMDQtNCIgdHJhbnNmb3JtPSJ0cmFuc2xhdGUoNi4zMzU0NywtMy4wNTMwNSkiPiYjeGE7CQkJPHRpdGxlIGlkPSJ0aXRsZTYwNzgwIj5TaGVldC40MzA0PC90aXRsZT4mI3hhOwkJCTxwYXRoIGlkPSJwYXRoNjA3ODIiIGlua3NjYXBlOmNvbm5lY3Rvci1jdXJ2YXR1cmU9IjAiIHN0eWxlPSJmaWxsOiMwMEFFRUY7IiBkPSJNNy45OCwyNS44M2MtMC4wNSwwLTAuMDktMC4wMy0wLjEzLTAuMDMgICAgIGMtNy43Mi00LjM3LTcuNzItNC4zNy03LjcyLTQuMzdDMC4wNCwyMS40LDAsMjEuMzEsMCwyMS4yNGMwLTguNzgsMC04Ljc4LDAtOC43OGMwLTAuMDksMC4wNC0wLjE2LDAuMTMtMC4yICAgICBjMC4wOC0wLjA1LDAuMTYtMC4wNSwwLjI1LDBjNy43Miw0LjM3LDcuNzIsNC4zNyw3LjcyLDQuMzdjMC4wOCwwLjAzLDAuMTEsMC4xMiwwLjExLDAuMTljMCw4Ljc4LDAsOC43OCwwLDguNzggICAgIGMwLDAuMDktMC4wMywwLjE2LTAuMTEsMC4yQzguMDUsMjUuOCw4LjAyLDI1LjgzLDcuOTgsMjUuODN6Ii8+JiN4YTsJCTwvZz4mI3hhOwkJPGcgaWQ9InNoYXBlNDMwNS02IiB0cmFuc2Zvcm09InRyYW5zbGF0ZSgxNi4xOTA2LC0zLjA1MzA1KSI+JiN4YTsJCQk8dGl0bGUgaWQ9InRpdGxlNjA3ODUiPlNoZWV0LjQzMDU8L3RpdGxlPiYjeGE7CQkJPHBhdGggaWQ9InBhdGg2MDc4NyIgaW5rc2NhcGU6Y29ubmVjdG9yLWN1cnZhdHVyZT0iMCIgc3R5bGU9ImZpbGw6IzJCQUFFMTsiIGQ9Ik0wLjI1LDI1LjgzYy0wLjA0LDAtMC4wNy0wLjAzLTAuMTItMC4wMyAgICAgQzAuMDQsMjUuNzYsMCwyNS42OSwwLDI1LjZjMC04Ljc2LDAtOC43NiwwLTguNzZjMC0wLjA4LDAuMDQtMC4xNywwLjEzLTAuMmM3LjcyLTQuMzgsNy43Mi00LjM4LDcuNzItNC4zOCAgICAgYzAuMDgtMC4wNSwwLjE3LTAuMDUsMC4yNSwwYzAuMDQsMC4wNCwwLjExLDAuMTEsMC4xMSwwLjJjMCw4Ljc2LDAsOC43NiwwLDguNzZjMCwwLjA4LTAuMDcsMC4xNy0wLjExLDAuMiAgICAgQzAuMzgsMjUuOCwwLjM4LDI1LjgsMC4zOCwyNS44QzAuMzQsMjUuOCwwLjI5LDI1LjgzLDAuMjUsMjUuODN6Ii8+JiN4YTsJCTwvZz4mI3hhOwkJPGcgaWQ9InNoYXBlNDMwNi04IiB0cmFuc2Zvcm09InRyYW5zbGF0ZSgyMy40NjQ3KSI+JiN4YTsJCQk8dGl0bGUgaWQ9InRpdGxlNjA3OTAiPlNoZWV0LjQzMDY8L3RpdGxlPiYjeGE7CQkJPHBhdGggaWQ9InBhdGg2MDc5MiIgaW5rc2NhcGU6Y29ubmVjdG9yLWN1cnZhdHVyZT0iMCIgc3R5bGU9ImZpbGw6IzkzOTU5ODsiIGQ9Ik00LjQ3LDBDMCwwLDAsMCwwLDBjMCwxLjI2LDAsMS4yNiwwLDEuMjYgICAgIGM0LjQ3LDAsNC40NywwLDQuNDcsMGMwLjg3LDAsMS41OSwwLjcyLDEuNTksMS41N2MwLDIwLjE5LDAsMjAuMTksMCwyMC4xOWMwLDAuODgtMC43MiwxLjU3LTEuNTksMS41N2MtNC40NywwLTQuNDcsMC00LjQ3LDAgICAgIGMwLDEuMjQsMCwxLjI0LDAsMS4yNGM0LjQ3LDAsNC40NywwLDQuNDcsMGMxLjU0LDAsMi44LTEuMjQsMi44LTIuODFjMC0yMC4xOSwwLTIwLjE5LDAtMjAuMTlDNy4yNywxLjMxLDYuMDEsMCw0LjQ3LDB6Ii8+JiN4YTsJCTwvZz4mI3hhOwkJPGcgaWQ9InNoYXBlNDMwNy0xMCI+JiN4YTsJCQk8dGl0bGUgaWQ9InRpdGxlNjA3OTUiPlNoZWV0LjQzMDc8L3RpdGxlPiYjeGE7CQkJPHBhdGggaWQ9InBhdGg2MDc5NyIgaW5rc2NhcGU6Y29ubmVjdG9yLWN1cnZhdHVyZT0iMCIgc3R5bGU9ImZpbGw6IzkzOTU5ODsiIGQ9Ik0yLjgyLDI0LjU5Yy0wLjg3LDAtMS41OS0wLjY5LTEuNTktMS41NyAgICAgYzAtMjAuMTksMC0yMC4xOSwwLTIwLjE5YzAtMC44NSwwLjcyLTEuNTcsMS41OS0xLjU3YzQuNDUsMCw0LjQ1LDAsNC40NSwwYzAtMS4yNiwwLTEuMjYsMC0xLjI2QzIuODIsMCwyLjgyLDAsMi44MiwwICAgICBDMS4yOCwwLDAsMS4zMSwwLDIuODNjMCwyMC4xOSwwLDIwLjE5LDAsMjAuMTljMCwxLjU3LDEuMjgsMi44MSwyLjgyLDIuODFjNC40NSwwLDQuNDUsMCw0LjQ1LDBjMC0xLjI0LDAtMS4yNCwwLTEuMjRIMi44MnoiLz4mI3hhOwkJPC9nPiYjeGE7CTwvZz4mI3hhOzwvZz4mI3hhOzwvc3ZnPg==;" parent="1" vertex="1">
          <mxGeometry x="770" y="510" width="90" height="75.48" as="geometry" />
        </mxCell>
      </root>
    </mxGraphModel>
  </diagram>
</mxfile>
